<mxfile host="app.diagrams.net" agent="Mozilla/5.0 (Windows NT 10.0; Win64; x64) AppleWebKit/537.36 (KHTML, like Gecko) Chrome/131.0.0.0 Safari/537.36" version="25.0.3">
  <diagram name="Page-1" id="0">
    <mxGraphModel dx="1969" dy="-746" grid="1" gridSize="10" guides="1" tooltips="1" connect="1" arrows="1" fold="1" page="1" pageScale="1" pageWidth="1169" pageHeight="827" math="0" shadow="0">
      <root>
        <mxCell id="0" />
        <mxCell id="1" parent="0" />
        <mxCell id="aIrRdvwk2NRUeUNDegvj-22" value="" style="fontSize=12;html=1;endArrow=ERzeroToMany;startArrow=ERmandOne;rounded=0;exitX=1;exitY=0.5;exitDx=0;exitDy=0;edgeStyle=orthogonalEdgeStyle;entryX=0.5;entryY=0;entryDx=0;entryDy=0;" edge="1" parent="1">
          <mxGeometry width="100" height="100" relative="1" as="geometry">
            <mxPoint x="480" y="1750" as="sourcePoint" />
            <mxPoint x="660" y="1820" as="targetPoint" />
          </mxGeometry>
        </mxCell>
        <mxCell id="aIrRdvwk2NRUeUNDegvj-23" value="Provider" style="shape=table;startSize=30;container=1;collapsible=0;childLayout=tableLayout;fixedRows=1;rowLines=0;fontStyle=0;strokeColor=default;fontSize=16;" vertex="1" parent="1">
          <mxGeometry x="570" y="2090" width="180" height="80" as="geometry" />
        </mxCell>
        <mxCell id="aIrRdvwk2NRUeUNDegvj-24" value="" style="shape=tableRow;horizontal=0;startSize=0;swimlaneHead=0;swimlaneBody=0;top=0;left=0;bottom=1;right=0;collapsible=0;dropTarget=0;fillColor=none;points=[[0,0.5],[1,0.5]];portConstraint=eastwest;strokeColor=inherit;fontSize=16;" vertex="1" parent="aIrRdvwk2NRUeUNDegvj-23">
          <mxGeometry y="30" width="180" height="50" as="geometry" />
        </mxCell>
        <mxCell id="aIrRdvwk2NRUeUNDegvj-25" value="PK &amp;amp; FK" style="shape=partialRectangle;html=1;whiteSpace=wrap;connectable=0;fillColor=none;top=0;left=0;bottom=0;right=0;overflow=hidden;pointerEvents=1;strokeColor=inherit;fontSize=16;" vertex="1" parent="aIrRdvwk2NRUeUNDegvj-24">
          <mxGeometry width="40" height="50" as="geometry">
            <mxRectangle width="40" height="50" as="alternateBounds" />
          </mxGeometry>
        </mxCell>
        <mxCell id="aIrRdvwk2NRUeUNDegvj-26" value="UserId:int" style="shape=partialRectangle;html=1;whiteSpace=wrap;connectable=0;fillColor=none;top=0;left=0;bottom=0;right=0;align=left;spacingLeft=6;overflow=hidden;strokeColor=inherit;fontSize=16;" vertex="1" parent="aIrRdvwk2NRUeUNDegvj-24">
          <mxGeometry x="40" width="140" height="50" as="geometry">
            <mxRectangle width="140" height="50" as="alternateBounds" />
          </mxGeometry>
        </mxCell>
        <mxCell id="aIrRdvwk2NRUeUNDegvj-27" value="" style="fontSize=12;html=1;endArrow=ERzeroToMany;startArrow=ERmandOne;rounded=0;entryX=0.5;entryY=0;entryDx=0;entryDy=0;edgeStyle=orthogonalEdgeStyle;" edge="1" parent="1" target="aIrRdvwk2NRUeUNDegvj-23">
          <mxGeometry width="100" height="100" relative="1" as="geometry">
            <mxPoint x="660" y="2030" as="sourcePoint" />
            <mxPoint x="810" y="1160" as="targetPoint" />
          </mxGeometry>
        </mxCell>
        <mxCell id="aIrRdvwk2NRUeUNDegvj-28" value="ProviderBook" style="shape=table;startSize=30;container=1;collapsible=0;childLayout=tableLayout;fixedRows=1;rowLines=0;fontStyle=0;strokeColor=default;fontSize=16;" vertex="1" parent="1">
          <mxGeometry x="570" y="2210" width="180" height="120" as="geometry" />
        </mxCell>
        <mxCell id="aIrRdvwk2NRUeUNDegvj-29" value="" style="shape=tableRow;horizontal=0;startSize=0;swimlaneHead=0;swimlaneBody=0;top=0;left=0;bottom=1;right=0;collapsible=0;dropTarget=0;fillColor=none;points=[[0,0.5],[1,0.5]];portConstraint=eastwest;strokeColor=inherit;fontSize=16;" vertex="1" parent="aIrRdvwk2NRUeUNDegvj-28">
          <mxGeometry y="30" width="180" height="30" as="geometry" />
        </mxCell>
        <mxCell id="aIrRdvwk2NRUeUNDegvj-30" value="PK" style="shape=partialRectangle;html=1;whiteSpace=wrap;connectable=0;fillColor=none;top=0;left=0;bottom=0;right=0;overflow=hidden;pointerEvents=1;strokeColor=inherit;fontSize=16;" vertex="1" parent="aIrRdvwk2NRUeUNDegvj-29">
          <mxGeometry width="40" height="30" as="geometry">
            <mxRectangle width="40" height="30" as="alternateBounds" />
          </mxGeometry>
        </mxCell>
        <mxCell id="aIrRdvwk2NRUeUNDegvj-31" value="Id : serial" style="shape=partialRectangle;html=1;whiteSpace=wrap;connectable=0;fillColor=none;top=0;left=0;bottom=0;right=0;align=left;spacingLeft=6;overflow=hidden;strokeColor=inherit;fontSize=16;" vertex="1" parent="aIrRdvwk2NRUeUNDegvj-29">
          <mxGeometry x="40" width="140" height="30" as="geometry">
            <mxRectangle width="140" height="30" as="alternateBounds" />
          </mxGeometry>
        </mxCell>
        <mxCell id="aIrRdvwk2NRUeUNDegvj-32" value="" style="shape=tableRow;horizontal=0;startSize=0;swimlaneHead=0;swimlaneBody=0;top=0;left=0;bottom=0;right=0;collapsible=0;dropTarget=0;fillColor=none;points=[[0,0.5],[1,0.5]];portConstraint=eastwest;strokeColor=inherit;fontSize=16;" vertex="1" parent="aIrRdvwk2NRUeUNDegvj-28">
          <mxGeometry y="60" width="180" height="30" as="geometry" />
        </mxCell>
        <mxCell id="aIrRdvwk2NRUeUNDegvj-33" value="FK1" style="shape=partialRectangle;html=1;whiteSpace=wrap;connectable=0;fillColor=none;top=0;left=0;bottom=0;right=0;overflow=hidden;strokeColor=inherit;fontSize=16;" vertex="1" parent="aIrRdvwk2NRUeUNDegvj-32">
          <mxGeometry width="40" height="30" as="geometry">
            <mxRectangle width="40" height="30" as="alternateBounds" />
          </mxGeometry>
        </mxCell>
        <mxCell id="aIrRdvwk2NRUeUNDegvj-34" value="ProviderId" style="shape=partialRectangle;html=1;whiteSpace=wrap;connectable=0;fillColor=none;top=0;left=0;bottom=0;right=0;align=left;spacingLeft=6;overflow=hidden;strokeColor=inherit;fontSize=16;" vertex="1" parent="aIrRdvwk2NRUeUNDegvj-32">
          <mxGeometry x="40" width="140" height="30" as="geometry">
            <mxRectangle width="140" height="30" as="alternateBounds" />
          </mxGeometry>
        </mxCell>
        <mxCell id="aIrRdvwk2NRUeUNDegvj-35" value="" style="shape=tableRow;horizontal=0;startSize=0;swimlaneHead=0;swimlaneBody=0;top=0;left=0;bottom=0;right=0;collapsible=0;dropTarget=0;fillColor=none;points=[[0,0.5],[1,0.5]];portConstraint=eastwest;strokeColor=inherit;fontSize=16;" vertex="1" parent="aIrRdvwk2NRUeUNDegvj-28">
          <mxGeometry y="90" width="180" height="30" as="geometry" />
        </mxCell>
        <mxCell id="aIrRdvwk2NRUeUNDegvj-36" value="FK2" style="shape=partialRectangle;html=1;whiteSpace=wrap;connectable=0;fillColor=none;top=0;left=0;bottom=0;right=0;overflow=hidden;strokeColor=inherit;fontSize=16;" vertex="1" parent="aIrRdvwk2NRUeUNDegvj-35">
          <mxGeometry width="40" height="30" as="geometry">
            <mxRectangle width="40" height="30" as="alternateBounds" />
          </mxGeometry>
        </mxCell>
        <mxCell id="aIrRdvwk2NRUeUNDegvj-37" value="BookId" style="shape=partialRectangle;html=1;whiteSpace=wrap;connectable=0;fillColor=none;top=0;left=0;bottom=0;right=0;align=left;spacingLeft=6;overflow=hidden;strokeColor=inherit;fontSize=16;" vertex="1" parent="aIrRdvwk2NRUeUNDegvj-35">
          <mxGeometry x="40" width="140" height="30" as="geometry">
            <mxRectangle width="140" height="30" as="alternateBounds" />
          </mxGeometry>
        </mxCell>
        <mxCell id="aIrRdvwk2NRUeUNDegvj-38" value="" style="fontSize=12;html=1;endArrow=ERzeroToMany;startArrow=ERmandOne;rounded=0;entryX=0.5;entryY=0;entryDx=0;entryDy=0;exitX=0.499;exitY=0.981;exitDx=0;exitDy=0;edgeStyle=orthogonalEdgeStyle;exitPerimeter=0;" edge="1" parent="1" source="aIrRdvwk2NRUeUNDegvj-24" target="aIrRdvwk2NRUeUNDegvj-28">
          <mxGeometry width="100" height="100" relative="1" as="geometry">
            <mxPoint x="800" y="1080" as="sourcePoint" />
            <mxPoint x="800" y="1150" as="targetPoint" />
          </mxGeometry>
        </mxCell>
        <mxCell id="aIrRdvwk2NRUeUNDegvj-39" value="Book" style="shape=table;startSize=30;container=1;collapsible=0;childLayout=tableLayout;fixedRows=1;rowLines=0;fontStyle=0;strokeColor=default;fontSize=16;" vertex="1" parent="1">
          <mxGeometry x="570" y="2370" width="180" height="120" as="geometry" />
        </mxCell>
        <mxCell id="aIrRdvwk2NRUeUNDegvj-40" value="" style="shape=tableRow;horizontal=0;startSize=0;swimlaneHead=0;swimlaneBody=0;top=0;left=0;bottom=1;right=0;collapsible=0;dropTarget=0;fillColor=none;points=[[0,0.5],[1,0.5]];portConstraint=eastwest;strokeColor=inherit;fontSize=16;" vertex="1" parent="aIrRdvwk2NRUeUNDegvj-39">
          <mxGeometry y="30" width="180" height="30" as="geometry" />
        </mxCell>
        <mxCell id="aIrRdvwk2NRUeUNDegvj-41" value="PK" style="shape=partialRectangle;html=1;whiteSpace=wrap;connectable=0;fillColor=none;top=0;left=0;bottom=0;right=0;overflow=hidden;pointerEvents=1;strokeColor=inherit;fontSize=16;" vertex="1" parent="aIrRdvwk2NRUeUNDegvj-40">
          <mxGeometry width="40" height="30" as="geometry">
            <mxRectangle width="40" height="30" as="alternateBounds" />
          </mxGeometry>
        </mxCell>
        <mxCell id="aIrRdvwk2NRUeUNDegvj-42" value="Id : serial" style="shape=partialRectangle;html=1;whiteSpace=wrap;connectable=0;fillColor=none;top=0;left=0;bottom=0;right=0;align=left;spacingLeft=6;overflow=hidden;strokeColor=inherit;fontSize=16;" vertex="1" parent="aIrRdvwk2NRUeUNDegvj-40">
          <mxGeometry x="40" width="140" height="30" as="geometry">
            <mxRectangle width="140" height="30" as="alternateBounds" />
          </mxGeometry>
        </mxCell>
        <mxCell id="aIrRdvwk2NRUeUNDegvj-43" value="" style="shape=tableRow;horizontal=0;startSize=0;swimlaneHead=0;swimlaneBody=0;top=0;left=0;bottom=0;right=0;collapsible=0;dropTarget=0;fillColor=none;points=[[0,0.5],[1,0.5]];portConstraint=eastwest;strokeColor=inherit;fontSize=16;" vertex="1" parent="aIrRdvwk2NRUeUNDegvj-39">
          <mxGeometry y="60" width="180" height="30" as="geometry" />
        </mxCell>
        <mxCell id="aIrRdvwk2NRUeUNDegvj-44" value="" style="shape=partialRectangle;html=1;whiteSpace=wrap;connectable=0;fillColor=none;top=0;left=0;bottom=0;right=0;overflow=hidden;strokeColor=inherit;fontSize=16;" vertex="1" parent="aIrRdvwk2NRUeUNDegvj-43">
          <mxGeometry width="40" height="30" as="geometry">
            <mxRectangle width="40" height="30" as="alternateBounds" />
          </mxGeometry>
        </mxCell>
        <mxCell id="aIrRdvwk2NRUeUNDegvj-45" value="Title:&amp;nbsp;varchar(64)" style="shape=partialRectangle;html=1;whiteSpace=wrap;connectable=0;fillColor=none;top=0;left=0;bottom=0;right=0;align=left;spacingLeft=6;overflow=hidden;strokeColor=inherit;fontSize=16;" vertex="1" parent="aIrRdvwk2NRUeUNDegvj-43">
          <mxGeometry x="40" width="140" height="30" as="geometry">
            <mxRectangle width="140" height="30" as="alternateBounds" />
          </mxGeometry>
        </mxCell>
        <mxCell id="aIrRdvwk2NRUeUNDegvj-46" value="" style="shape=tableRow;horizontal=0;startSize=0;swimlaneHead=0;swimlaneBody=0;top=0;left=0;bottom=0;right=0;collapsible=0;dropTarget=0;fillColor=none;points=[[0,0.5],[1,0.5]];portConstraint=eastwest;strokeColor=inherit;fontSize=16;" vertex="1" parent="aIrRdvwk2NRUeUNDegvj-39">
          <mxGeometry y="90" width="180" height="30" as="geometry" />
        </mxCell>
        <mxCell id="aIrRdvwk2NRUeUNDegvj-47" value="FK2" style="shape=partialRectangle;html=1;whiteSpace=wrap;connectable=0;fillColor=none;top=0;left=0;bottom=0;right=0;overflow=hidden;strokeColor=inherit;fontSize=16;" vertex="1" parent="aIrRdvwk2NRUeUNDegvj-46">
          <mxGeometry width="40" height="30" as="geometry">
            <mxRectangle width="40" height="30" as="alternateBounds" />
          </mxGeometry>
        </mxCell>
        <mxCell id="aIrRdvwk2NRUeUNDegvj-48" value="AuthorId:int" style="shape=partialRectangle;html=1;whiteSpace=wrap;connectable=0;fillColor=none;top=0;left=0;bottom=0;right=0;align=left;spacingLeft=6;overflow=hidden;strokeColor=inherit;fontSize=16;" vertex="1" parent="aIrRdvwk2NRUeUNDegvj-46">
          <mxGeometry x="40" width="140" height="30" as="geometry">
            <mxRectangle width="140" height="30" as="alternateBounds" />
          </mxGeometry>
        </mxCell>
        <mxCell id="aIrRdvwk2NRUeUNDegvj-49" value="" style="fontSize=12;html=1;endArrow=ERzeroToMany;startArrow=ERmandOne;rounded=0;exitX=0.5;exitY=0;exitDx=0;exitDy=0;edgeStyle=orthogonalEdgeStyle;" edge="1" parent="1" source="aIrRdvwk2NRUeUNDegvj-39">
          <mxGeometry width="100" height="100" relative="1" as="geometry">
            <mxPoint x="800" y="1390" as="sourcePoint" />
            <mxPoint x="660" y="2330" as="targetPoint" />
          </mxGeometry>
        </mxCell>
        <mxCell id="aIrRdvwk2NRUeUNDegvj-50" value="Author" style="shape=table;startSize=30;container=1;collapsible=0;childLayout=tableLayout;fixedRows=1;rowLines=0;fontStyle=0;strokeColor=default;fontSize=16;" vertex="1" parent="1">
          <mxGeometry x="570" y="2530" width="180" height="90" as="geometry" />
        </mxCell>
        <mxCell id="aIrRdvwk2NRUeUNDegvj-51" value="" style="shape=tableRow;horizontal=0;startSize=0;swimlaneHead=0;swimlaneBody=0;top=0;left=0;bottom=1;right=0;collapsible=0;dropTarget=0;fillColor=none;points=[[0,0.5],[1,0.5]];portConstraint=eastwest;strokeColor=inherit;fontSize=16;" vertex="1" parent="aIrRdvwk2NRUeUNDegvj-50">
          <mxGeometry y="30" width="180" height="30" as="geometry" />
        </mxCell>
        <mxCell id="aIrRdvwk2NRUeUNDegvj-52" value="PK" style="shape=partialRectangle;html=1;whiteSpace=wrap;connectable=0;fillColor=none;top=0;left=0;bottom=0;right=0;overflow=hidden;pointerEvents=1;strokeColor=inherit;fontSize=16;" vertex="1" parent="aIrRdvwk2NRUeUNDegvj-51">
          <mxGeometry width="40" height="30" as="geometry">
            <mxRectangle width="40" height="30" as="alternateBounds" />
          </mxGeometry>
        </mxCell>
        <mxCell id="aIrRdvwk2NRUeUNDegvj-53" value="Id : serial" style="shape=partialRectangle;html=1;whiteSpace=wrap;connectable=0;fillColor=none;top=0;left=0;bottom=0;right=0;align=left;spacingLeft=6;overflow=hidden;strokeColor=inherit;fontSize=16;" vertex="1" parent="aIrRdvwk2NRUeUNDegvj-51">
          <mxGeometry x="40" width="140" height="30" as="geometry">
            <mxRectangle width="140" height="30" as="alternateBounds" />
          </mxGeometry>
        </mxCell>
        <mxCell id="aIrRdvwk2NRUeUNDegvj-54" value="" style="shape=tableRow;horizontal=0;startSize=0;swimlaneHead=0;swimlaneBody=0;top=0;left=0;bottom=0;right=0;collapsible=0;dropTarget=0;fillColor=none;points=[[0,0.5],[1,0.5]];portConstraint=eastwest;strokeColor=inherit;fontSize=16;" vertex="1" parent="aIrRdvwk2NRUeUNDegvj-50">
          <mxGeometry y="60" width="180" height="30" as="geometry" />
        </mxCell>
        <mxCell id="aIrRdvwk2NRUeUNDegvj-55" value="" style="shape=partialRectangle;html=1;whiteSpace=wrap;connectable=0;fillColor=none;top=0;left=0;bottom=0;right=0;overflow=hidden;strokeColor=inherit;fontSize=16;" vertex="1" parent="aIrRdvwk2NRUeUNDegvj-54">
          <mxGeometry width="40" height="30" as="geometry">
            <mxRectangle width="40" height="30" as="alternateBounds" />
          </mxGeometry>
        </mxCell>
        <mxCell id="aIrRdvwk2NRUeUNDegvj-56" value="Name:&amp;nbsp;varchar(64)" style="shape=partialRectangle;html=1;whiteSpace=wrap;connectable=0;fillColor=none;top=0;left=0;bottom=0;right=0;align=left;spacingLeft=6;overflow=hidden;strokeColor=inherit;fontSize=16;" vertex="1" parent="aIrRdvwk2NRUeUNDegvj-54">
          <mxGeometry x="40" width="140" height="30" as="geometry">
            <mxRectangle width="140" height="30" as="alternateBounds" />
          </mxGeometry>
        </mxCell>
        <mxCell id="aIrRdvwk2NRUeUNDegvj-57" value="" style="fontSize=12;html=1;endArrow=ERzeroToMany;startArrow=ERmandOne;rounded=0;exitX=0.5;exitY=0;exitDx=0;exitDy=0;edgeStyle=orthogonalEdgeStyle;" edge="1" parent="1" source="aIrRdvwk2NRUeUNDegvj-50">
          <mxGeometry width="100" height="100" relative="1" as="geometry">
            <mxPoint x="800" y="1390" as="sourcePoint" />
            <mxPoint x="660" y="2490" as="targetPoint" />
          </mxGeometry>
        </mxCell>
        <mxCell id="aIrRdvwk2NRUeUNDegvj-58" value="Audit_Log" style="shape=table;startSize=30;container=1;collapsible=0;childLayout=tableLayout;fixedRows=1;rowLines=0;fontStyle=0;strokeColor=default;fontSize=16;" vertex="1" parent="1">
          <mxGeometry x="570" y="2690" width="280" height="240" as="geometry" />
        </mxCell>
        <mxCell id="aIrRdvwk2NRUeUNDegvj-59" value="" style="shape=tableRow;horizontal=0;startSize=0;swimlaneHead=0;swimlaneBody=0;top=0;left=0;bottom=1;right=0;collapsible=0;dropTarget=0;fillColor=none;points=[[0,0.5],[1,0.5]];portConstraint=eastwest;strokeColor=inherit;fontSize=16;" vertex="1" parent="aIrRdvwk2NRUeUNDegvj-58">
          <mxGeometry y="30" width="280" height="30" as="geometry" />
        </mxCell>
        <mxCell id="aIrRdvwk2NRUeUNDegvj-60" value="PK" style="shape=partialRectangle;html=1;whiteSpace=wrap;connectable=0;fillColor=none;top=0;left=0;bottom=0;right=0;overflow=hidden;pointerEvents=1;strokeColor=inherit;fontSize=16;" vertex="1" parent="aIrRdvwk2NRUeUNDegvj-59">
          <mxGeometry width="62" height="30" as="geometry">
            <mxRectangle width="62" height="30" as="alternateBounds" />
          </mxGeometry>
        </mxCell>
        <mxCell id="aIrRdvwk2NRUeUNDegvj-61" value="Id : serial" style="shape=partialRectangle;html=1;whiteSpace=wrap;connectable=0;fillColor=none;top=0;left=0;bottom=0;right=0;align=left;spacingLeft=6;overflow=hidden;strokeColor=inherit;fontSize=16;" vertex="1" parent="aIrRdvwk2NRUeUNDegvj-59">
          <mxGeometry x="62" width="218" height="30" as="geometry">
            <mxRectangle width="218" height="30" as="alternateBounds" />
          </mxGeometry>
        </mxCell>
        <mxCell id="aIrRdvwk2NRUeUNDegvj-62" value="" style="shape=tableRow;horizontal=0;startSize=0;swimlaneHead=0;swimlaneBody=0;top=0;left=0;bottom=0;right=0;collapsible=0;dropTarget=0;fillColor=none;points=[[0,0.5],[1,0.5]];portConstraint=eastwest;strokeColor=inherit;fontSize=16;" vertex="1" parent="aIrRdvwk2NRUeUNDegvj-58">
          <mxGeometry y="60" width="280" height="30" as="geometry" />
        </mxCell>
        <mxCell id="aIrRdvwk2NRUeUNDegvj-63" value="FK1" style="shape=partialRectangle;html=1;whiteSpace=wrap;connectable=0;fillColor=none;top=0;left=0;bottom=0;right=0;overflow=hidden;strokeColor=inherit;fontSize=16;" vertex="1" parent="aIrRdvwk2NRUeUNDegvj-62">
          <mxGeometry width="62" height="30" as="geometry">
            <mxRectangle width="62" height="30" as="alternateBounds" />
          </mxGeometry>
        </mxCell>
        <mxCell id="aIrRdvwk2NRUeUNDegvj-64" value="Table_name: varchar(64)" style="shape=partialRectangle;html=1;whiteSpace=wrap;connectable=0;fillColor=none;top=0;left=0;bottom=0;right=0;align=left;spacingLeft=6;overflow=hidden;strokeColor=inherit;fontSize=16;" vertex="1" parent="aIrRdvwk2NRUeUNDegvj-62">
          <mxGeometry x="62" width="218" height="30" as="geometry">
            <mxRectangle width="218" height="30" as="alternateBounds" />
          </mxGeometry>
        </mxCell>
        <mxCell id="aIrRdvwk2NRUeUNDegvj-65" value="" style="shape=tableRow;horizontal=0;startSize=0;swimlaneHead=0;swimlaneBody=0;top=0;left=0;bottom=0;right=0;collapsible=0;dropTarget=0;fillColor=none;points=[[0,0.5],[1,0.5]];portConstraint=eastwest;strokeColor=inherit;fontSize=16;" vertex="1" parent="aIrRdvwk2NRUeUNDegvj-58">
          <mxGeometry y="90" width="280" height="30" as="geometry" />
        </mxCell>
        <mxCell id="aIrRdvwk2NRUeUNDegvj-66" value="" style="shape=partialRectangle;html=1;whiteSpace=wrap;connectable=0;fillColor=none;top=0;left=0;bottom=0;right=0;overflow=hidden;strokeColor=inherit;fontSize=16;" vertex="1" parent="aIrRdvwk2NRUeUNDegvj-65">
          <mxGeometry width="62" height="30" as="geometry">
            <mxRectangle width="62" height="30" as="alternateBounds" />
          </mxGeometry>
        </mxCell>
        <mxCell id="aIrRdvwk2NRUeUNDegvj-67" value="Operation_type:varchar(64)" style="shape=partialRectangle;html=1;whiteSpace=wrap;connectable=0;fillColor=none;top=0;left=0;bottom=0;right=0;align=left;spacingLeft=6;overflow=hidden;strokeColor=inherit;fontSize=16;" vertex="1" parent="aIrRdvwk2NRUeUNDegvj-65">
          <mxGeometry x="62" width="218" height="30" as="geometry">
            <mxRectangle width="218" height="30" as="alternateBounds" />
          </mxGeometry>
        </mxCell>
        <mxCell id="aIrRdvwk2NRUeUNDegvj-68" value="" style="shape=tableRow;horizontal=0;startSize=0;swimlaneHead=0;swimlaneBody=0;top=0;left=0;bottom=0;right=0;collapsible=0;dropTarget=0;fillColor=none;points=[[0,0.5],[1,0.5]];portConstraint=eastwest;strokeColor=inherit;fontSize=16;" vertex="1" parent="aIrRdvwk2NRUeUNDegvj-58">
          <mxGeometry y="120" width="280" height="30" as="geometry" />
        </mxCell>
        <mxCell id="aIrRdvwk2NRUeUNDegvj-69" value="" style="shape=partialRectangle;html=1;whiteSpace=wrap;connectable=0;fillColor=none;top=0;left=0;bottom=0;right=0;overflow=hidden;strokeColor=inherit;fontSize=16;" vertex="1" parent="aIrRdvwk2NRUeUNDegvj-68">
          <mxGeometry width="62" height="30" as="geometry">
            <mxRectangle width="62" height="30" as="alternateBounds" />
          </mxGeometry>
        </mxCell>
        <mxCell id="aIrRdvwk2NRUeUNDegvj-70" value="Chaned_at:&amp;nbsp;timestamptz" style="shape=partialRectangle;html=1;whiteSpace=wrap;connectable=0;fillColor=none;top=0;left=0;bottom=0;right=0;align=left;spacingLeft=6;overflow=hidden;strokeColor=inherit;fontSize=16;" vertex="1" parent="aIrRdvwk2NRUeUNDegvj-68">
          <mxGeometry x="62" width="218" height="30" as="geometry">
            <mxRectangle width="218" height="30" as="alternateBounds" />
          </mxGeometry>
        </mxCell>
        <mxCell id="aIrRdvwk2NRUeUNDegvj-71" value="" style="shape=tableRow;horizontal=0;startSize=0;swimlaneHead=0;swimlaneBody=0;top=0;left=0;bottom=0;right=0;collapsible=0;dropTarget=0;fillColor=none;points=[[0,0.5],[1,0.5]];portConstraint=eastwest;strokeColor=inherit;fontSize=16;" vertex="1" parent="aIrRdvwk2NRUeUNDegvj-58">
          <mxGeometry y="150" width="280" height="30" as="geometry" />
        </mxCell>
        <mxCell id="aIrRdvwk2NRUeUNDegvj-72" value="" style="shape=partialRectangle;html=1;whiteSpace=wrap;connectable=0;fillColor=none;top=0;left=0;bottom=0;right=0;overflow=hidden;strokeColor=inherit;fontSize=16;" vertex="1" parent="aIrRdvwk2NRUeUNDegvj-71">
          <mxGeometry width="62" height="30" as="geometry">
            <mxRectangle width="62" height="30" as="alternateBounds" />
          </mxGeometry>
        </mxCell>
        <mxCell id="aIrRdvwk2NRUeUNDegvj-73" value="original_value: Json" style="shape=partialRectangle;html=1;whiteSpace=wrap;connectable=0;fillColor=none;top=0;left=0;bottom=0;right=0;align=left;spacingLeft=6;overflow=hidden;strokeColor=inherit;fontSize=16;" vertex="1" parent="aIrRdvwk2NRUeUNDegvj-71">
          <mxGeometry x="62" width="218" height="30" as="geometry">
            <mxRectangle width="218" height="30" as="alternateBounds" />
          </mxGeometry>
        </mxCell>
        <mxCell id="aIrRdvwk2NRUeUNDegvj-74" value="" style="shape=tableRow;horizontal=0;startSize=0;swimlaneHead=0;swimlaneBody=0;top=0;left=0;bottom=0;right=0;collapsible=0;dropTarget=0;fillColor=none;points=[[0,0.5],[1,0.5]];portConstraint=eastwest;strokeColor=inherit;fontSize=16;" vertex="1" parent="aIrRdvwk2NRUeUNDegvj-58">
          <mxGeometry y="180" width="280" height="30" as="geometry" />
        </mxCell>
        <mxCell id="aIrRdvwk2NRUeUNDegvj-75" value="" style="shape=partialRectangle;html=1;whiteSpace=wrap;connectable=0;fillColor=none;top=0;left=0;bottom=0;right=0;overflow=hidden;strokeColor=inherit;fontSize=16;" vertex="1" parent="aIrRdvwk2NRUeUNDegvj-74">
          <mxGeometry width="62" height="30" as="geometry">
            <mxRectangle width="62" height="30" as="alternateBounds" />
          </mxGeometry>
        </mxCell>
        <mxCell id="aIrRdvwk2NRUeUNDegvj-76" value="new_value: Json" style="shape=partialRectangle;html=1;whiteSpace=wrap;connectable=0;fillColor=none;top=0;left=0;bottom=0;right=0;align=left;spacingLeft=6;overflow=hidden;strokeColor=inherit;fontSize=16;" vertex="1" parent="aIrRdvwk2NRUeUNDegvj-74">
          <mxGeometry x="62" width="218" height="30" as="geometry">
            <mxRectangle width="218" height="30" as="alternateBounds" />
          </mxGeometry>
        </mxCell>
        <mxCell id="aIrRdvwk2NRUeUNDegvj-77" value="" style="shape=tableRow;horizontal=0;startSize=0;swimlaneHead=0;swimlaneBody=0;top=0;left=0;bottom=0;right=0;collapsible=0;dropTarget=0;fillColor=none;points=[[0,0.5],[1,0.5]];portConstraint=eastwest;strokeColor=inherit;fontSize=16;" vertex="1" parent="aIrRdvwk2NRUeUNDegvj-58">
          <mxGeometry y="210" width="280" height="30" as="geometry" />
        </mxCell>
        <mxCell id="aIrRdvwk2NRUeUNDegvj-78" value="FK2" style="shape=partialRectangle;html=1;whiteSpace=wrap;connectable=0;fillColor=none;top=0;left=0;bottom=0;right=0;overflow=hidden;strokeColor=inherit;fontSize=16;" vertex="1" parent="aIrRdvwk2NRUeUNDegvj-77">
          <mxGeometry width="62" height="30" as="geometry">
            <mxRectangle width="62" height="30" as="alternateBounds" />
          </mxGeometry>
        </mxCell>
        <mxCell id="aIrRdvwk2NRUeUNDegvj-79" value="record_Id:int" style="shape=partialRectangle;html=1;whiteSpace=wrap;connectable=0;fillColor=none;top=0;left=0;bottom=0;right=0;align=left;spacingLeft=6;overflow=hidden;strokeColor=inherit;fontSize=16;" vertex="1" parent="aIrRdvwk2NRUeUNDegvj-77">
          <mxGeometry x="62" width="218" height="30" as="geometry">
            <mxRectangle width="218" height="30" as="alternateBounds" />
          </mxGeometry>
        </mxCell>
        <mxCell id="aIrRdvwk2NRUeUNDegvj-80" value="" style="fontSize=12;html=1;endArrow=ERzeroToMany;startArrow=ERmandOne;rounded=0;entryX=1.014;entryY=0.786;entryDx=0;entryDy=0;exitX=0;exitY=0.5;exitDx=0;exitDy=0;edgeStyle=orthogonalEdgeStyle;entryPerimeter=0;" edge="1" parent="1" source="aIrRdvwk2NRUeUNDegvj-156" target="aIrRdvwk2NRUeUNDegvj-176">
          <mxGeometry width="100" height="100" relative="1" as="geometry">
            <mxPoint x="779.1000000000004" y="1962.79" as="sourcePoint" />
            <mxPoint x="750.54" y="1963.0100000000002" as="targetPoint" />
          </mxGeometry>
        </mxCell>
        <mxCell id="aIrRdvwk2NRUeUNDegvj-81" value="Cart" style="shape=table;startSize=30;container=1;collapsible=0;childLayout=tableLayout;fixedRows=1;rowLines=0;fontStyle=0;strokeColor=default;fontSize=16;" vertex="1" parent="1">
          <mxGeometry x="1010" y="2000" width="180" height="90" as="geometry" />
        </mxCell>
        <mxCell id="aIrRdvwk2NRUeUNDegvj-82" value="" style="shape=tableRow;horizontal=0;startSize=0;swimlaneHead=0;swimlaneBody=0;top=0;left=0;bottom=1;right=0;collapsible=0;dropTarget=0;fillColor=none;points=[[0,0.5],[1,0.5]];portConstraint=eastwest;strokeColor=inherit;fontSize=16;" vertex="1" parent="aIrRdvwk2NRUeUNDegvj-81">
          <mxGeometry y="30" width="180" height="30" as="geometry" />
        </mxCell>
        <mxCell id="aIrRdvwk2NRUeUNDegvj-83" value="PK" style="shape=partialRectangle;html=1;whiteSpace=wrap;connectable=0;fillColor=none;top=0;left=0;bottom=0;right=0;overflow=hidden;pointerEvents=1;strokeColor=inherit;fontSize=16;" vertex="1" parent="aIrRdvwk2NRUeUNDegvj-82">
          <mxGeometry width="40" height="30" as="geometry">
            <mxRectangle width="40" height="30" as="alternateBounds" />
          </mxGeometry>
        </mxCell>
        <mxCell id="aIrRdvwk2NRUeUNDegvj-84" value="Id : serial" style="shape=partialRectangle;html=1;whiteSpace=wrap;connectable=0;fillColor=none;top=0;left=0;bottom=0;right=0;align=left;spacingLeft=6;overflow=hidden;strokeColor=inherit;fontSize=16;" vertex="1" parent="aIrRdvwk2NRUeUNDegvj-82">
          <mxGeometry x="40" width="140" height="30" as="geometry">
            <mxRectangle width="140" height="30" as="alternateBounds" />
          </mxGeometry>
        </mxCell>
        <mxCell id="aIrRdvwk2NRUeUNDegvj-85" value="" style="shape=tableRow;horizontal=0;startSize=0;swimlaneHead=0;swimlaneBody=0;top=0;left=0;bottom=0;right=0;collapsible=0;dropTarget=0;fillColor=none;points=[[0,0.5],[1,0.5]];portConstraint=eastwest;strokeColor=inherit;fontSize=16;" vertex="1" parent="aIrRdvwk2NRUeUNDegvj-81">
          <mxGeometry y="60" width="180" height="30" as="geometry" />
        </mxCell>
        <mxCell id="aIrRdvwk2NRUeUNDegvj-86" value="FK1" style="shape=partialRectangle;html=1;whiteSpace=wrap;connectable=0;fillColor=none;top=0;left=0;bottom=0;right=0;overflow=hidden;strokeColor=inherit;fontSize=16;" vertex="1" parent="aIrRdvwk2NRUeUNDegvj-85">
          <mxGeometry width="40" height="30" as="geometry">
            <mxRectangle width="40" height="30" as="alternateBounds" />
          </mxGeometry>
        </mxCell>
        <mxCell id="aIrRdvwk2NRUeUNDegvj-87" value="UserId:int" style="shape=partialRectangle;html=1;whiteSpace=wrap;connectable=0;fillColor=none;top=0;left=0;bottom=0;right=0;align=left;spacingLeft=6;overflow=hidden;strokeColor=inherit;fontSize=16;" vertex="1" parent="aIrRdvwk2NRUeUNDegvj-85">
          <mxGeometry x="40" width="140" height="30" as="geometry">
            <mxRectangle width="140" height="30" as="alternateBounds" />
          </mxGeometry>
        </mxCell>
        <mxCell id="aIrRdvwk2NRUeUNDegvj-88" value="" style="edgeStyle=orthogonalEdgeStyle;fontSize=12;html=1;endArrow=ERmandOne;startArrow=ERmandOne;rounded=0;entryX=0.427;entryY=-0.022;entryDx=0;entryDy=0;exitX=1.01;exitY=0.121;exitDx=0;exitDy=0;exitPerimeter=0;entryPerimeter=0;" edge="1" parent="1" target="aIrRdvwk2NRUeUNDegvj-81" source="aIrRdvwk2NRUeUNDegvj-166">
          <mxGeometry width="100" height="100" relative="1" as="geometry">
            <mxPoint x="749.1000000000004" y="1845.9499999999998" as="sourcePoint" />
            <mxPoint x="1200" y="1050" as="targetPoint" />
            <Array as="points">
              <mxPoint x="885" y="1845" />
              <mxPoint x="1087" y="1845" />
            </Array>
          </mxGeometry>
        </mxCell>
        <mxCell id="aIrRdvwk2NRUeUNDegvj-89" value="CartBook" style="shape=table;startSize=30;container=1;collapsible=0;childLayout=tableLayout;fixedRows=1;rowLines=0;fontStyle=0;strokeColor=default;fontSize=16;" vertex="1" parent="1">
          <mxGeometry x="1010" y="2370" width="180" height="120" as="geometry" />
        </mxCell>
        <mxCell id="aIrRdvwk2NRUeUNDegvj-90" value="" style="shape=tableRow;horizontal=0;startSize=0;swimlaneHead=0;swimlaneBody=0;top=0;left=0;bottom=1;right=0;collapsible=0;dropTarget=0;fillColor=none;points=[[0,0.5],[1,0.5]];portConstraint=eastwest;strokeColor=inherit;fontSize=16;" vertex="1" parent="aIrRdvwk2NRUeUNDegvj-89">
          <mxGeometry y="30" width="180" height="30" as="geometry" />
        </mxCell>
        <mxCell id="aIrRdvwk2NRUeUNDegvj-91" value="PK" style="shape=partialRectangle;html=1;whiteSpace=wrap;connectable=0;fillColor=none;top=0;left=0;bottom=0;right=0;overflow=hidden;pointerEvents=1;strokeColor=inherit;fontSize=16;" vertex="1" parent="aIrRdvwk2NRUeUNDegvj-90">
          <mxGeometry width="40" height="30" as="geometry">
            <mxRectangle width="40" height="30" as="alternateBounds" />
          </mxGeometry>
        </mxCell>
        <mxCell id="aIrRdvwk2NRUeUNDegvj-92" value="Id : serial" style="shape=partialRectangle;html=1;whiteSpace=wrap;connectable=0;fillColor=none;top=0;left=0;bottom=0;right=0;align=left;spacingLeft=6;overflow=hidden;strokeColor=inherit;fontSize=16;" vertex="1" parent="aIrRdvwk2NRUeUNDegvj-90">
          <mxGeometry x="40" width="140" height="30" as="geometry">
            <mxRectangle width="140" height="30" as="alternateBounds" />
          </mxGeometry>
        </mxCell>
        <mxCell id="aIrRdvwk2NRUeUNDegvj-93" value="" style="shape=tableRow;horizontal=0;startSize=0;swimlaneHead=0;swimlaneBody=0;top=0;left=0;bottom=0;right=0;collapsible=0;dropTarget=0;fillColor=none;points=[[0,0.5],[1,0.5]];portConstraint=eastwest;strokeColor=inherit;fontSize=16;" vertex="1" parent="aIrRdvwk2NRUeUNDegvj-89">
          <mxGeometry y="60" width="180" height="30" as="geometry" />
        </mxCell>
        <mxCell id="aIrRdvwk2NRUeUNDegvj-94" value="FK1" style="shape=partialRectangle;html=1;whiteSpace=wrap;connectable=0;fillColor=none;top=0;left=0;bottom=0;right=0;overflow=hidden;strokeColor=inherit;fontSize=16;" vertex="1" parent="aIrRdvwk2NRUeUNDegvj-93">
          <mxGeometry width="40" height="30" as="geometry">
            <mxRectangle width="40" height="30" as="alternateBounds" />
          </mxGeometry>
        </mxCell>
        <mxCell id="aIrRdvwk2NRUeUNDegvj-95" value="BookId:int" style="shape=partialRectangle;html=1;whiteSpace=wrap;connectable=0;fillColor=none;top=0;left=0;bottom=0;right=0;align=left;spacingLeft=6;overflow=hidden;strokeColor=inherit;fontSize=16;" vertex="1" parent="aIrRdvwk2NRUeUNDegvj-93">
          <mxGeometry x="40" width="140" height="30" as="geometry">
            <mxRectangle width="140" height="30" as="alternateBounds" />
          </mxGeometry>
        </mxCell>
        <mxCell id="aIrRdvwk2NRUeUNDegvj-96" value="" style="shape=tableRow;horizontal=0;startSize=0;swimlaneHead=0;swimlaneBody=0;top=0;left=0;bottom=0;right=0;collapsible=0;dropTarget=0;fillColor=none;points=[[0,0.5],[1,0.5]];portConstraint=eastwest;strokeColor=inherit;fontSize=16;" vertex="1" parent="aIrRdvwk2NRUeUNDegvj-89">
          <mxGeometry y="90" width="180" height="30" as="geometry" />
        </mxCell>
        <mxCell id="aIrRdvwk2NRUeUNDegvj-97" value="FK2" style="shape=partialRectangle;html=1;whiteSpace=wrap;connectable=0;fillColor=none;top=0;left=0;bottom=0;right=0;overflow=hidden;strokeColor=inherit;fontSize=16;" vertex="1" parent="aIrRdvwk2NRUeUNDegvj-96">
          <mxGeometry width="40" height="30" as="geometry">
            <mxRectangle width="40" height="30" as="alternateBounds" />
          </mxGeometry>
        </mxCell>
        <mxCell id="aIrRdvwk2NRUeUNDegvj-98" value="BookId:int" style="shape=partialRectangle;html=1;whiteSpace=wrap;connectable=0;fillColor=none;top=0;left=0;bottom=0;right=0;align=left;spacingLeft=6;overflow=hidden;strokeColor=inherit;fontSize=16;" vertex="1" parent="aIrRdvwk2NRUeUNDegvj-96">
          <mxGeometry x="40" width="140" height="30" as="geometry">
            <mxRectangle width="140" height="30" as="alternateBounds" />
          </mxGeometry>
        </mxCell>
        <mxCell id="aIrRdvwk2NRUeUNDegvj-99" value="" style="edgeStyle=orthogonalEdgeStyle;fontSize=12;html=1;endArrow=ERzeroToMany;startArrow=ERmandOne;rounded=0;entryX=0.5;entryY=0;entryDx=0;entryDy=0;" edge="1" parent="1" target="aIrRdvwk2NRUeUNDegvj-89">
          <mxGeometry width="100" height="100" relative="1" as="geometry">
            <mxPoint x="1100" y="2090" as="sourcePoint" />
            <mxPoint x="1170" y="1406" as="targetPoint" />
          </mxGeometry>
        </mxCell>
        <mxCell id="aIrRdvwk2NRUeUNDegvj-100" value="" style="fontSize=12;html=1;endArrow=ERzeroToMany;startArrow=ERmandOne;rounded=0;exitX=1;exitY=0.5;exitDx=0;exitDy=0;edgeStyle=elbowEdgeStyle;entryX=0;entryY=0.5;entryDx=0;entryDy=0;" edge="1" parent="1" source="aIrRdvwk2NRUeUNDegvj-43" target="aIrRdvwk2NRUeUNDegvj-93">
          <mxGeometry width="100" height="100" relative="1" as="geometry">
            <mxPoint x="880" y="1472" as="sourcePoint" />
            <mxPoint x="1120" y="1472" as="targetPoint" />
          </mxGeometry>
        </mxCell>
        <mxCell id="aIrRdvwk2NRUeUNDegvj-101" value="BookCategory" style="shape=table;startSize=30;container=1;collapsible=0;childLayout=tableLayout;fixedRows=1;rowLines=0;fontStyle=0;strokeColor=default;fontSize=16;" vertex="1" parent="1">
          <mxGeometry x="810" y="2294" width="180" height="120" as="geometry" />
        </mxCell>
        <mxCell id="aIrRdvwk2NRUeUNDegvj-102" value="" style="shape=tableRow;horizontal=0;startSize=0;swimlaneHead=0;swimlaneBody=0;top=0;left=0;bottom=1;right=0;collapsible=0;dropTarget=0;fillColor=none;points=[[0,0.5],[1,0.5]];portConstraint=eastwest;strokeColor=inherit;fontSize=16;" vertex="1" parent="aIrRdvwk2NRUeUNDegvj-101">
          <mxGeometry y="30" width="180" height="30" as="geometry" />
        </mxCell>
        <mxCell id="aIrRdvwk2NRUeUNDegvj-103" value="PK" style="shape=partialRectangle;html=1;whiteSpace=wrap;connectable=0;fillColor=none;top=0;left=0;bottom=0;right=0;overflow=hidden;pointerEvents=1;strokeColor=inherit;fontSize=16;" vertex="1" parent="aIrRdvwk2NRUeUNDegvj-102">
          <mxGeometry width="40" height="30" as="geometry">
            <mxRectangle width="40" height="30" as="alternateBounds" />
          </mxGeometry>
        </mxCell>
        <mxCell id="aIrRdvwk2NRUeUNDegvj-104" value="Id : serial" style="shape=partialRectangle;html=1;whiteSpace=wrap;connectable=0;fillColor=none;top=0;left=0;bottom=0;right=0;align=left;spacingLeft=6;overflow=hidden;strokeColor=inherit;fontSize=16;" vertex="1" parent="aIrRdvwk2NRUeUNDegvj-102">
          <mxGeometry x="40" width="140" height="30" as="geometry">
            <mxRectangle width="140" height="30" as="alternateBounds" />
          </mxGeometry>
        </mxCell>
        <mxCell id="aIrRdvwk2NRUeUNDegvj-105" value="" style="shape=tableRow;horizontal=0;startSize=0;swimlaneHead=0;swimlaneBody=0;top=0;left=0;bottom=0;right=0;collapsible=0;dropTarget=0;fillColor=none;points=[[0,0.5],[1,0.5]];portConstraint=eastwest;strokeColor=inherit;fontSize=16;" vertex="1" parent="aIrRdvwk2NRUeUNDegvj-101">
          <mxGeometry y="60" width="180" height="30" as="geometry" />
        </mxCell>
        <mxCell id="aIrRdvwk2NRUeUNDegvj-106" value="FK1" style="shape=partialRectangle;html=1;whiteSpace=wrap;connectable=0;fillColor=none;top=0;left=0;bottom=0;right=0;overflow=hidden;strokeColor=inherit;fontSize=16;" vertex="1" parent="aIrRdvwk2NRUeUNDegvj-105">
          <mxGeometry width="40" height="30" as="geometry">
            <mxRectangle width="40" height="30" as="alternateBounds" />
          </mxGeometry>
        </mxCell>
        <mxCell id="aIrRdvwk2NRUeUNDegvj-107" value="BookId" style="shape=partialRectangle;html=1;whiteSpace=wrap;connectable=0;fillColor=none;top=0;left=0;bottom=0;right=0;align=left;spacingLeft=6;overflow=hidden;strokeColor=inherit;fontSize=16;" vertex="1" parent="aIrRdvwk2NRUeUNDegvj-105">
          <mxGeometry x="40" width="140" height="30" as="geometry">
            <mxRectangle width="140" height="30" as="alternateBounds" />
          </mxGeometry>
        </mxCell>
        <mxCell id="aIrRdvwk2NRUeUNDegvj-108" value="" style="shape=tableRow;horizontal=0;startSize=0;swimlaneHead=0;swimlaneBody=0;top=0;left=0;bottom=0;right=0;collapsible=0;dropTarget=0;fillColor=none;points=[[0,0.5],[1,0.5]];portConstraint=eastwest;strokeColor=inherit;fontSize=16;" vertex="1" parent="aIrRdvwk2NRUeUNDegvj-101">
          <mxGeometry y="90" width="180" height="30" as="geometry" />
        </mxCell>
        <mxCell id="aIrRdvwk2NRUeUNDegvj-109" value="FK2" style="shape=partialRectangle;html=1;whiteSpace=wrap;connectable=0;fillColor=none;top=0;left=0;bottom=0;right=0;overflow=hidden;strokeColor=inherit;fontSize=16;" vertex="1" parent="aIrRdvwk2NRUeUNDegvj-108">
          <mxGeometry width="40" height="30" as="geometry">
            <mxRectangle width="40" height="30" as="alternateBounds" />
          </mxGeometry>
        </mxCell>
        <mxCell id="aIrRdvwk2NRUeUNDegvj-110" value="CategoryId" style="shape=partialRectangle;html=1;whiteSpace=wrap;connectable=0;fillColor=none;top=0;left=0;bottom=0;right=0;align=left;spacingLeft=6;overflow=hidden;strokeColor=inherit;fontSize=16;" vertex="1" parent="aIrRdvwk2NRUeUNDegvj-108">
          <mxGeometry x="40" width="140" height="30" as="geometry">
            <mxRectangle width="140" height="30" as="alternateBounds" />
          </mxGeometry>
        </mxCell>
        <mxCell id="aIrRdvwk2NRUeUNDegvj-111" value="" style="fontSize=12;html=1;endArrow=ERzeroToMany;startArrow=ERmandOne;rounded=0;exitX=0.989;exitY=0.15;exitDx=0;exitDy=0;edgeStyle=elbowEdgeStyle;exitPerimeter=0;entryX=-0.01;entryY=0.12;entryDx=0;entryDy=0;entryPerimeter=0;" edge="1" parent="1" source="aIrRdvwk2NRUeUNDegvj-39" target="aIrRdvwk2NRUeUNDegvj-108">
          <mxGeometry width="100" height="100" relative="1" as="geometry">
            <mxPoint x="880" y="1472" as="sourcePoint" />
            <mxPoint x="840" y="2388" as="targetPoint" />
          </mxGeometry>
        </mxCell>
        <mxCell id="aIrRdvwk2NRUeUNDegvj-112" value="Category" style="shape=table;startSize=30;container=1;collapsible=0;childLayout=tableLayout;fixedRows=1;rowLines=0;fontStyle=0;strokeColor=default;fontSize=16;" vertex="1" parent="1">
          <mxGeometry x="810" y="2140" width="200" height="90" as="geometry" />
        </mxCell>
        <mxCell id="aIrRdvwk2NRUeUNDegvj-113" value="" style="shape=tableRow;horizontal=0;startSize=0;swimlaneHead=0;swimlaneBody=0;top=0;left=0;bottom=1;right=0;collapsible=0;dropTarget=0;fillColor=none;points=[[0,0.5],[1,0.5]];portConstraint=eastwest;strokeColor=inherit;fontSize=16;" vertex="1" parent="aIrRdvwk2NRUeUNDegvj-112">
          <mxGeometry y="30" width="200" height="30" as="geometry" />
        </mxCell>
        <mxCell id="aIrRdvwk2NRUeUNDegvj-114" value="PK" style="shape=partialRectangle;html=1;whiteSpace=wrap;connectable=0;fillColor=none;top=0;left=0;bottom=0;right=0;overflow=hidden;pointerEvents=1;strokeColor=inherit;fontSize=16;" vertex="1" parent="aIrRdvwk2NRUeUNDegvj-113">
          <mxGeometry width="44" height="30" as="geometry">
            <mxRectangle width="44" height="30" as="alternateBounds" />
          </mxGeometry>
        </mxCell>
        <mxCell id="aIrRdvwk2NRUeUNDegvj-115" value="Id : serial" style="shape=partialRectangle;html=1;whiteSpace=wrap;connectable=0;fillColor=none;top=0;left=0;bottom=0;right=0;align=left;spacingLeft=6;overflow=hidden;strokeColor=inherit;fontSize=16;" vertex="1" parent="aIrRdvwk2NRUeUNDegvj-113">
          <mxGeometry x="44" width="156" height="30" as="geometry">
            <mxRectangle width="156" height="30" as="alternateBounds" />
          </mxGeometry>
        </mxCell>
        <mxCell id="aIrRdvwk2NRUeUNDegvj-116" value="" style="shape=tableRow;horizontal=0;startSize=0;swimlaneHead=0;swimlaneBody=0;top=0;left=0;bottom=0;right=0;collapsible=0;dropTarget=0;fillColor=none;points=[[0,0.5],[1,0.5]];portConstraint=eastwest;strokeColor=inherit;fontSize=16;" vertex="1" parent="aIrRdvwk2NRUeUNDegvj-112">
          <mxGeometry y="60" width="200" height="30" as="geometry" />
        </mxCell>
        <mxCell id="aIrRdvwk2NRUeUNDegvj-117" value="" style="shape=partialRectangle;html=1;whiteSpace=wrap;connectable=0;fillColor=none;top=0;left=0;bottom=0;right=0;overflow=hidden;strokeColor=inherit;fontSize=16;" vertex="1" parent="aIrRdvwk2NRUeUNDegvj-116">
          <mxGeometry width="44" height="30" as="geometry">
            <mxRectangle width="44" height="30" as="alternateBounds" />
          </mxGeometry>
        </mxCell>
        <mxCell id="aIrRdvwk2NRUeUNDegvj-118" value="Name:&amp;nbsp;varchar(64)" style="shape=partialRectangle;html=1;whiteSpace=wrap;connectable=0;fillColor=none;top=0;left=0;bottom=0;right=0;align=left;spacingLeft=6;overflow=hidden;strokeColor=inherit;fontSize=16;" vertex="1" parent="aIrRdvwk2NRUeUNDegvj-116">
          <mxGeometry x="44" width="156" height="30" as="geometry">
            <mxRectangle width="156" height="30" as="alternateBounds" />
          </mxGeometry>
        </mxCell>
        <mxCell id="aIrRdvwk2NRUeUNDegvj-119" value="" style="edgeStyle=orthogonalEdgeStyle;fontSize=12;html=1;endArrow=ERoneToMany;startArrow=ERmandOne;rounded=0;exitX=0.501;exitY=0.9;exitDx=0;exitDy=0;entryX=0.5;entryY=0;entryDx=0;entryDy=0;exitPerimeter=0;" edge="1" parent="1" source="aIrRdvwk2NRUeUNDegvj-116" target="aIrRdvwk2NRUeUNDegvj-101">
          <mxGeometry width="100" height="100" relative="1" as="geometry">
            <mxPoint x="980" y="1280" as="sourcePoint" />
            <mxPoint x="980" y="1349" as="targetPoint" />
            <Array as="points">
              <mxPoint x="910" y="2227" />
              <mxPoint x="910" y="2294" />
            </Array>
          </mxGeometry>
        </mxCell>
        <mxCell id="aIrRdvwk2NRUeUNDegvj-120" value="Review" style="shape=table;startSize=30;container=1;collapsible=0;childLayout=tableLayout;fixedRows=1;rowLines=0;fontStyle=0;strokeColor=default;fontSize=16;" vertex="1" parent="1">
          <mxGeometry x="140" y="1950" width="180" height="140" as="geometry" />
        </mxCell>
        <mxCell id="aIrRdvwk2NRUeUNDegvj-121" value="" style="shape=tableRow;horizontal=0;startSize=0;swimlaneHead=0;swimlaneBody=0;top=0;left=0;bottom=1;right=0;collapsible=0;dropTarget=0;fillColor=none;points=[[0,0.5],[1,0.5]];portConstraint=eastwest;strokeColor=inherit;fontSize=16;" vertex="1" parent="aIrRdvwk2NRUeUNDegvj-120">
          <mxGeometry y="30" width="180" height="30" as="geometry" />
        </mxCell>
        <mxCell id="aIrRdvwk2NRUeUNDegvj-122" value="PK" style="shape=partialRectangle;html=1;whiteSpace=wrap;connectable=0;fillColor=none;top=0;left=0;bottom=0;right=0;overflow=hidden;pointerEvents=1;strokeColor=inherit;fontSize=16;" vertex="1" parent="aIrRdvwk2NRUeUNDegvj-121">
          <mxGeometry width="40" height="30" as="geometry">
            <mxRectangle width="40" height="30" as="alternateBounds" />
          </mxGeometry>
        </mxCell>
        <mxCell id="aIrRdvwk2NRUeUNDegvj-123" value="Id : serial" style="shape=partialRectangle;html=1;whiteSpace=wrap;connectable=0;fillColor=none;top=0;left=0;bottom=0;right=0;align=left;spacingLeft=6;overflow=hidden;strokeColor=inherit;fontSize=16;" vertex="1" parent="aIrRdvwk2NRUeUNDegvj-121">
          <mxGeometry x="40" width="140" height="30" as="geometry">
            <mxRectangle width="140" height="30" as="alternateBounds" />
          </mxGeometry>
        </mxCell>
        <mxCell id="aIrRdvwk2NRUeUNDegvj-124" value="" style="shape=tableRow;horizontal=0;startSize=0;swimlaneHead=0;swimlaneBody=0;top=0;left=0;bottom=0;right=0;collapsible=0;dropTarget=0;fillColor=none;points=[[0,0.5],[1,0.5]];portConstraint=eastwest;strokeColor=inherit;fontSize=16;" vertex="1" parent="aIrRdvwk2NRUeUNDegvj-120">
          <mxGeometry y="60" width="180" height="30" as="geometry" />
        </mxCell>
        <mxCell id="aIrRdvwk2NRUeUNDegvj-125" value="" style="shape=partialRectangle;html=1;whiteSpace=wrap;connectable=0;fillColor=none;top=0;left=0;bottom=0;right=0;overflow=hidden;strokeColor=inherit;fontSize=16;" vertex="1" parent="aIrRdvwk2NRUeUNDegvj-124">
          <mxGeometry width="40" height="30" as="geometry">
            <mxRectangle width="40" height="30" as="alternateBounds" />
          </mxGeometry>
        </mxCell>
        <mxCell id="aIrRdvwk2NRUeUNDegvj-126" value="Text:&amp;nbsp;varchar(64)" style="shape=partialRectangle;html=1;whiteSpace=wrap;connectable=0;fillColor=none;top=0;left=0;bottom=0;right=0;align=left;spacingLeft=6;overflow=hidden;strokeColor=inherit;fontSize=16;" vertex="1" parent="aIrRdvwk2NRUeUNDegvj-124">
          <mxGeometry x="40" width="140" height="30" as="geometry">
            <mxRectangle width="140" height="30" as="alternateBounds" />
          </mxGeometry>
        </mxCell>
        <mxCell id="aIrRdvwk2NRUeUNDegvj-127" value="" style="shape=tableRow;horizontal=0;startSize=0;swimlaneHead=0;swimlaneBody=0;top=0;left=0;bottom=0;right=0;collapsible=0;dropTarget=0;fillColor=none;points=[[0,0.5],[1,0.5]];portConstraint=eastwest;strokeColor=inherit;fontSize=16;" vertex="1" parent="aIrRdvwk2NRUeUNDegvj-120">
          <mxGeometry y="90" width="180" height="30" as="geometry" />
        </mxCell>
        <mxCell id="aIrRdvwk2NRUeUNDegvj-128" value="FK1" style="shape=partialRectangle;html=1;whiteSpace=wrap;connectable=0;fillColor=none;top=0;left=0;bottom=0;right=0;overflow=hidden;strokeColor=inherit;fontSize=16;" vertex="1" parent="aIrRdvwk2NRUeUNDegvj-127">
          <mxGeometry width="40" height="30" as="geometry">
            <mxRectangle width="40" height="30" as="alternateBounds" />
          </mxGeometry>
        </mxCell>
        <mxCell id="aIrRdvwk2NRUeUNDegvj-129" value="BookId:int" style="shape=partialRectangle;html=1;whiteSpace=wrap;connectable=0;fillColor=none;top=0;left=0;bottom=0;right=0;align=left;spacingLeft=6;overflow=hidden;strokeColor=inherit;fontSize=16;" vertex="1" parent="aIrRdvwk2NRUeUNDegvj-127">
          <mxGeometry x="40" width="140" height="30" as="geometry">
            <mxRectangle width="140" height="30" as="alternateBounds" />
          </mxGeometry>
        </mxCell>
        <mxCell id="aIrRdvwk2NRUeUNDegvj-130" value="" style="shape=tableRow;horizontal=0;startSize=0;swimlaneHead=0;swimlaneBody=0;top=0;left=0;bottom=0;right=0;collapsible=0;dropTarget=0;fillColor=none;points=[[0,0.5],[1,0.5]];portConstraint=eastwest;strokeColor=inherit;fontSize=16;" vertex="1" parent="aIrRdvwk2NRUeUNDegvj-120">
          <mxGeometry y="120" width="180" height="20" as="geometry" />
        </mxCell>
        <mxCell id="aIrRdvwk2NRUeUNDegvj-131" value="FK2" style="shape=partialRectangle;html=1;whiteSpace=wrap;connectable=0;fillColor=none;top=0;left=0;bottom=0;right=0;overflow=hidden;strokeColor=inherit;fontSize=16;" vertex="1" parent="aIrRdvwk2NRUeUNDegvj-130">
          <mxGeometry width="40" height="20" as="geometry">
            <mxRectangle width="40" height="20" as="alternateBounds" />
          </mxGeometry>
        </mxCell>
        <mxCell id="aIrRdvwk2NRUeUNDegvj-132" value="UserId:int" style="shape=partialRectangle;html=1;whiteSpace=wrap;connectable=0;fillColor=none;top=0;left=0;bottom=0;right=0;align=left;spacingLeft=6;overflow=hidden;strokeColor=inherit;fontSize=16;" vertex="1" parent="aIrRdvwk2NRUeUNDegvj-130">
          <mxGeometry x="40" width="140" height="20" as="geometry">
            <mxRectangle width="140" height="20" as="alternateBounds" />
          </mxGeometry>
        </mxCell>
        <mxCell id="aIrRdvwk2NRUeUNDegvj-133" value="Order" style="shape=table;startSize=30;container=1;collapsible=0;childLayout=tableLayout;fixedRows=1;rowLines=0;fontStyle=0;strokeColor=default;fontSize=16;" vertex="1" parent="1">
          <mxGeometry x="350" y="1960" width="180" height="90" as="geometry" />
        </mxCell>
        <mxCell id="aIrRdvwk2NRUeUNDegvj-134" value="" style="shape=tableRow;horizontal=0;startSize=0;swimlaneHead=0;swimlaneBody=0;top=0;left=0;bottom=1;right=0;collapsible=0;dropTarget=0;fillColor=none;points=[[0,0.5],[1,0.5]];portConstraint=eastwest;strokeColor=inherit;fontSize=16;" vertex="1" parent="aIrRdvwk2NRUeUNDegvj-133">
          <mxGeometry y="30" width="180" height="30" as="geometry" />
        </mxCell>
        <mxCell id="aIrRdvwk2NRUeUNDegvj-135" value="PK" style="shape=partialRectangle;html=1;whiteSpace=wrap;connectable=0;fillColor=none;top=0;left=0;bottom=0;right=0;overflow=hidden;pointerEvents=1;strokeColor=inherit;fontSize=16;" vertex="1" parent="aIrRdvwk2NRUeUNDegvj-134">
          <mxGeometry width="40" height="30" as="geometry">
            <mxRectangle width="40" height="30" as="alternateBounds" />
          </mxGeometry>
        </mxCell>
        <mxCell id="aIrRdvwk2NRUeUNDegvj-136" value="Id : serial" style="shape=partialRectangle;html=1;whiteSpace=wrap;connectable=0;fillColor=none;top=0;left=0;bottom=0;right=0;align=left;spacingLeft=6;overflow=hidden;strokeColor=inherit;fontSize=16;" vertex="1" parent="aIrRdvwk2NRUeUNDegvj-134">
          <mxGeometry x="40" width="140" height="30" as="geometry">
            <mxRectangle width="140" height="30" as="alternateBounds" />
          </mxGeometry>
        </mxCell>
        <mxCell id="aIrRdvwk2NRUeUNDegvj-137" value="" style="shape=tableRow;horizontal=0;startSize=0;swimlaneHead=0;swimlaneBody=0;top=0;left=0;bottom=0;right=0;collapsible=0;dropTarget=0;fillColor=none;points=[[0,0.5],[1,0.5]];portConstraint=eastwest;strokeColor=inherit;fontSize=16;" vertex="1" parent="aIrRdvwk2NRUeUNDegvj-133">
          <mxGeometry y="60" width="180" height="30" as="geometry" />
        </mxCell>
        <mxCell id="aIrRdvwk2NRUeUNDegvj-138" value="Fk" style="shape=partialRectangle;html=1;whiteSpace=wrap;connectable=0;fillColor=none;top=0;left=0;bottom=0;right=0;overflow=hidden;strokeColor=inherit;fontSize=16;" vertex="1" parent="aIrRdvwk2NRUeUNDegvj-137">
          <mxGeometry width="40" height="30" as="geometry">
            <mxRectangle width="40" height="30" as="alternateBounds" />
          </mxGeometry>
        </mxCell>
        <mxCell id="aIrRdvwk2NRUeUNDegvj-139" value="UserID" style="shape=partialRectangle;html=1;whiteSpace=wrap;connectable=0;fillColor=none;top=0;left=0;bottom=0;right=0;align=left;spacingLeft=6;overflow=hidden;strokeColor=inherit;fontSize=16;" vertex="1" parent="aIrRdvwk2NRUeUNDegvj-137">
          <mxGeometry x="40" width="140" height="30" as="geometry">
            <mxRectangle width="140" height="30" as="alternateBounds" />
          </mxGeometry>
        </mxCell>
        <mxCell id="aIrRdvwk2NRUeUNDegvj-140" value="" style="fontSize=12;html=1;endArrow=ERzeroToMany;startArrow=ERmandOne;rounded=0;exitX=-0.016;exitY=0.054;exitDx=0;exitDy=0;edgeStyle=orthogonalEdgeStyle;entryX=0.5;entryY=0;entryDx=0;entryDy=0;exitPerimeter=0;" edge="1" parent="1" target="aIrRdvwk2NRUeUNDegvj-133">
          <mxGeometry width="100" height="100" relative="1" as="geometry">
            <mxPoint x="567.1199999999999" y="1851.62" as="sourcePoint" />
            <mxPoint x="705" y="850" as="targetPoint" />
          </mxGeometry>
        </mxCell>
        <mxCell id="aIrRdvwk2NRUeUNDegvj-141" value="" style="fontSize=12;html=1;endArrow=ERzeroToMany;startArrow=ERmandOne;rounded=0;edgeStyle=orthogonalEdgeStyle;entryX=0.469;entryY=0.019;entryDx=0;entryDy=0;entryPerimeter=0;exitX=-0.012;exitY=0.051;exitDx=0;exitDy=0;exitPerimeter=0;" edge="1" parent="1" target="aIrRdvwk2NRUeUNDegvj-120">
          <mxGeometry width="100" height="100" relative="1" as="geometry">
            <mxPoint x="567.8399999999997" y="1830.71" as="sourcePoint" />
            <mxPoint x="400" y="1970" as="targetPoint" />
            <Array as="points">
              <mxPoint x="224" y="1831" />
            </Array>
          </mxGeometry>
        </mxCell>
        <mxCell id="aIrRdvwk2NRUeUNDegvj-142" value="" style="edgeStyle=orthogonalEdgeStyle;fontSize=12;html=1;endArrow=ERzeroToMany;startArrow=ERmandOne;rounded=0;entryX=0.464;entryY=0.996;entryDx=0;entryDy=0;exitX=-0.012;exitY=0.286;exitDx=0;exitDy=0;entryPerimeter=0;exitPerimeter=0;" edge="1" parent="1" source="aIrRdvwk2NRUeUNDegvj-43" target="aIrRdvwk2NRUeUNDegvj-130">
          <mxGeometry width="100" height="100" relative="1" as="geometry">
            <mxPoint x="720" y="1472" as="sourcePoint" />
            <mxPoint x="380" y="1210" as="targetPoint" />
            <Array as="points">
              <mxPoint x="223" y="2439" />
            </Array>
          </mxGeometry>
        </mxCell>
        <mxCell id="aIrRdvwk2NRUeUNDegvj-143" value="" style="edgeStyle=orthogonalEdgeStyle;fontSize=12;html=1;endArrow=ERoneToMany;startArrow=ERzeroToOne;rounded=0;fontFamily=Helvetica;fontColor=default;exitX=-0.004;exitY=0.151;exitDx=0;exitDy=0;exitPerimeter=0;entryX=0.068;entryY=1.036;entryDx=0;entryDy=0;entryPerimeter=0;" edge="1" parent="1" source="aIrRdvwk2NRUeUNDegvj-77" target="aIrRdvwk2NRUeUNDegvj-130">
          <mxGeometry width="100" height="100" relative="1" as="geometry">
            <mxPoint x="500" y="2910" as="sourcePoint" />
            <mxPoint x="200" y="2480" as="targetPoint" />
          </mxGeometry>
        </mxCell>
        <mxCell id="aIrRdvwk2NRUeUNDegvj-144" value="" style="fontSize=12;html=1;endArrow=ERoneToMany;startArrow=ERzeroToOne;rounded=0;fontFamily=Helvetica;fontColor=default;exitX=0.321;exitY=0;exitDx=0;exitDy=0;entryX=0.5;entryY=1;entryDx=0;entryDy=0;exitPerimeter=0;" edge="1" parent="1" source="aIrRdvwk2NRUeUNDegvj-58" target="aIrRdvwk2NRUeUNDegvj-50">
          <mxGeometry width="100" height="100" relative="1" as="geometry">
            <mxPoint x="430" y="2690" as="sourcePoint" />
            <mxPoint x="530" y="2590" as="targetPoint" />
          </mxGeometry>
        </mxCell>
        <mxCell id="aIrRdvwk2NRUeUNDegvj-145" value="" style="fontSize=12;html=1;endArrow=ERoneToMany;startArrow=ERzeroToOne;rounded=0;fontFamily=Helvetica;fontColor=default;exitX=0.713;exitY=-0.008;exitDx=0;exitDy=0;entryX=1;entryY=0.5;entryDx=0;entryDy=0;edgeStyle=orthogonalEdgeStyle;exitPerimeter=0;" edge="1" parent="1" source="aIrRdvwk2NRUeUNDegvj-58" target="aIrRdvwk2NRUeUNDegvj-46">
          <mxGeometry width="100" height="100" relative="1" as="geometry">
            <mxPoint x="840" y="2680" as="sourcePoint" />
            <mxPoint x="840" y="2620" as="targetPoint" />
            <Array as="points">
              <mxPoint x="770" y="2650" />
              <mxPoint x="770" y="2650" />
              <mxPoint x="770" y="2475" />
            </Array>
          </mxGeometry>
        </mxCell>
        <mxCell id="aIrRdvwk2NRUeUNDegvj-146" value="" style="fontSize=12;html=1;endArrow=ERoneToMany;startArrow=ERzeroToOne;rounded=0;fontFamily=Helvetica;fontColor=default;entryX=-0.015;entryY=0.686;entryDx=0;entryDy=0;edgeStyle=orthogonalEdgeStyle;entryPerimeter=0;exitX=0.779;exitY=-0.001;exitDx=0;exitDy=0;exitPerimeter=0;" edge="1" parent="1" source="aIrRdvwk2NRUeUNDegvj-58" target="aIrRdvwk2NRUeUNDegvj-113">
          <mxGeometry width="100" height="100" relative="1" as="geometry">
            <mxPoint x="790" y="2700" as="sourcePoint" />
            <mxPoint x="760" y="2485" as="targetPoint" />
            <Array as="points">
              <mxPoint x="788" y="2191" />
            </Array>
          </mxGeometry>
        </mxCell>
        <mxCell id="aIrRdvwk2NRUeUNDegvj-147" value="" style="fontSize=12;html=1;endArrow=ERoneToMany;startArrow=ERzeroToOne;rounded=0;fontFamily=Helvetica;fontColor=default;exitX=1;exitY=0;exitDx=0;exitDy=0;entryX=1;entryY=0.5;entryDx=0;entryDy=0;edgeStyle=orthogonalEdgeStyle;exitPerimeter=0;" edge="1" parent="1" source="aIrRdvwk2NRUeUNDegvj-74" target="aIrRdvwk2NRUeUNDegvj-82">
          <mxGeometry width="100" height="100" relative="1" as="geometry">
            <mxPoint x="770" y="2745" as="sourcePoint" />
            <mxPoint x="770" y="2495" as="targetPoint" />
            <Array as="points">
              <mxPoint x="1220" y="2870" />
              <mxPoint x="1220" y="2045" />
            </Array>
          </mxGeometry>
        </mxCell>
        <mxCell id="aIrRdvwk2NRUeUNDegvj-148" value="" style="fontSize=12;html=1;endArrow=ERoneToMany;startArrow=ERzeroToOne;rounded=0;fontFamily=Helvetica;fontColor=default;exitX=1;exitY=0.5;exitDx=0;exitDy=0;entryX=1.014;entryY=0.341;entryDx=0;entryDy=0;edgeStyle=orthogonalEdgeStyle;entryPerimeter=0;" edge="1" parent="1" source="aIrRdvwk2NRUeUNDegvj-77" target="aIrRdvwk2NRUeUNDegvj-153">
          <mxGeometry width="100" height="100" relative="1" as="geometry">
            <mxPoint x="760" y="2870" as="sourcePoint" />
            <mxPoint x="961.98" y="1931.2600000000002" as="targetPoint" />
            <Array as="points">
              <mxPoint x="1230" y="2915" />
              <mxPoint x="1230" y="1930" />
            </Array>
          </mxGeometry>
        </mxCell>
        <mxCell id="aIrRdvwk2NRUeUNDegvj-149" value="" style="edgeStyle=orthogonalEdgeStyle;fontSize=12;html=1;endArrow=ERoneToMany;startArrow=ERzeroToOne;rounded=0;fontFamily=Helvetica;fontColor=default;exitX=0;exitY=0.5;exitDx=0;exitDy=0;entryX=0.104;entryY=1.059;entryDx=0;entryDy=0;entryPerimeter=0;" edge="1" parent="1">
          <mxGeometry width="100" height="100" relative="1" as="geometry">
            <mxPoint x="570" y="2793.23" as="sourcePoint" />
            <mxPoint x="368.72000000000014" y="2050" as="targetPoint" />
            <Array as="points">
              <mxPoint x="370" y="2793" />
              <mxPoint x="369" y="2793" />
            </Array>
          </mxGeometry>
        </mxCell>
        <mxCell id="aIrRdvwk2NRUeUNDegvj-150" value="" style="edgeStyle=orthogonalEdgeStyle;fontSize=12;html=1;endArrow=ERoneToMany;startArrow=ERzeroToOne;rounded=0;fontFamily=Helvetica;fontColor=default;exitX=0;exitY=0.5;exitDx=0;exitDy=0;entryX=0.257;entryY=0.989;entryDx=0;entryDy=0;entryPerimeter=0;" edge="1" parent="1" source="aIrRdvwk2NRUeUNDegvj-71">
          <mxGeometry width="100" height="100" relative="1" as="geometry">
            <mxPoint x="580" y="2795" as="sourcePoint" />
            <mxPoint x="346.2600000000002" y="1809.67" as="targetPoint" />
            <Array as="points">
              <mxPoint x="346" y="2855" />
              <mxPoint x="346" y="2845" />
            </Array>
          </mxGeometry>
        </mxCell>
        <mxCell id="aIrRdvwk2NRUeUNDegvj-151" value="" style="edgeStyle=orthogonalEdgeStyle;fontSize=12;html=1;endArrow=ERoneToMany;startArrow=ERzeroToOne;rounded=0;fontFamily=Helvetica;fontColor=default;exitX=-0.004;exitY=0.067;exitDx=0;exitDy=0;entryX=0;entryY=0.5;entryDx=0;entryDy=0;exitPerimeter=0;" edge="1" parent="1" source="aIrRdvwk2NRUeUNDegvj-59">
          <mxGeometry width="100" height="100" relative="1" as="geometry">
            <mxPoint x="580" y="2795" as="sourcePoint" />
            <mxPoint x="570" y="1895" as="targetPoint" />
            <Array as="points">
              <mxPoint x="540" y="2722" />
              <mxPoint x="540" y="1895" />
            </Array>
          </mxGeometry>
        </mxCell>
        <mxCell id="aIrRdvwk2NRUeUNDegvj-152" value="Role" style="shape=table;startSize=30;container=1;collapsible=0;childLayout=tableLayout;fixedRows=1;rowLines=0;fontStyle=0;strokeColor=default;fontSize=16;" vertex="1" parent="1">
          <mxGeometry x="820" y="1890" width="190" height="90" as="geometry" />
        </mxCell>
        <mxCell id="aIrRdvwk2NRUeUNDegvj-153" value="" style="shape=tableRow;horizontal=0;startSize=0;swimlaneHead=0;swimlaneBody=0;top=0;left=0;bottom=1;right=0;collapsible=0;dropTarget=0;fillColor=none;points=[[0,0.5],[1,0.5]];portConstraint=eastwest;strokeColor=inherit;fontSize=16;" vertex="1" parent="aIrRdvwk2NRUeUNDegvj-152">
          <mxGeometry y="30" width="190" height="30" as="geometry" />
        </mxCell>
        <mxCell id="aIrRdvwk2NRUeUNDegvj-154" value="PK" style="shape=partialRectangle;html=1;whiteSpace=wrap;connectable=0;fillColor=none;top=0;left=0;bottom=0;right=0;overflow=hidden;pointerEvents=1;strokeColor=inherit;fontSize=16;" vertex="1" parent="aIrRdvwk2NRUeUNDegvj-153">
          <mxGeometry width="42" height="30" as="geometry">
            <mxRectangle width="42" height="30" as="alternateBounds" />
          </mxGeometry>
        </mxCell>
        <mxCell id="aIrRdvwk2NRUeUNDegvj-155" value="Id : serial" style="shape=partialRectangle;html=1;whiteSpace=wrap;connectable=0;fillColor=none;top=0;left=0;bottom=0;right=0;align=left;spacingLeft=6;overflow=hidden;strokeColor=inherit;fontSize=16;" vertex="1" parent="aIrRdvwk2NRUeUNDegvj-153">
          <mxGeometry x="42" width="148" height="30" as="geometry">
            <mxRectangle width="148" height="30" as="alternateBounds" />
          </mxGeometry>
        </mxCell>
        <mxCell id="aIrRdvwk2NRUeUNDegvj-156" value="" style="shape=tableRow;horizontal=0;startSize=0;swimlaneHead=0;swimlaneBody=0;top=0;left=0;bottom=0;right=0;collapsible=0;dropTarget=0;fillColor=none;points=[[0,0.5],[1,0.5]];portConstraint=eastwest;strokeColor=inherit;fontSize=16;" vertex="1" parent="aIrRdvwk2NRUeUNDegvj-152">
          <mxGeometry y="60" width="190" height="30" as="geometry" />
        </mxCell>
        <mxCell id="aIrRdvwk2NRUeUNDegvj-157" value="U1" style="shape=partialRectangle;html=1;whiteSpace=wrap;connectable=0;fillColor=none;top=0;left=0;bottom=0;right=0;overflow=hidden;strokeColor=inherit;fontSize=16;" vertex="1" parent="aIrRdvwk2NRUeUNDegvj-156">
          <mxGeometry width="42" height="30" as="geometry">
            <mxRectangle width="42" height="30" as="alternateBounds" />
          </mxGeometry>
        </mxCell>
        <mxCell id="aIrRdvwk2NRUeUNDegvj-158" value="Name:&amp;nbsp;varchar(64)" style="shape=partialRectangle;html=1;whiteSpace=wrap;connectable=0;fillColor=none;top=0;left=0;bottom=0;right=0;align=left;spacingLeft=6;overflow=hidden;strokeColor=inherit;fontSize=16;" vertex="1" parent="aIrRdvwk2NRUeUNDegvj-156">
          <mxGeometry x="42" width="148" height="30" as="geometry">
            <mxRectangle width="148" height="30" as="alternateBounds" />
          </mxGeometry>
        </mxCell>
        <mxCell id="aIrRdvwk2NRUeUNDegvj-159" value="Coupon" style="shape=table;startSize=30;container=1;collapsible=0;childLayout=tableLayout;fixedRows=1;rowLines=0;fontStyle=0;strokeColor=default;fontSize=16;" vertex="1" parent="1">
          <mxGeometry x="296" y="1720" width="180" height="90" as="geometry" />
        </mxCell>
        <mxCell id="aIrRdvwk2NRUeUNDegvj-160" value="" style="shape=tableRow;horizontal=0;startSize=0;swimlaneHead=0;swimlaneBody=0;top=0;left=0;bottom=1;right=0;collapsible=0;dropTarget=0;fillColor=none;points=[[0,0.5],[1,0.5]];portConstraint=eastwest;strokeColor=inherit;fontSize=16;" vertex="1" parent="aIrRdvwk2NRUeUNDegvj-159">
          <mxGeometry y="30" width="180" height="30" as="geometry" />
        </mxCell>
        <mxCell id="aIrRdvwk2NRUeUNDegvj-161" value="PK" style="shape=partialRectangle;html=1;whiteSpace=wrap;connectable=0;fillColor=none;top=0;left=0;bottom=0;right=0;overflow=hidden;pointerEvents=1;strokeColor=inherit;fontSize=16;" vertex="1" parent="aIrRdvwk2NRUeUNDegvj-160">
          <mxGeometry width="40" height="30" as="geometry">
            <mxRectangle width="40" height="30" as="alternateBounds" />
          </mxGeometry>
        </mxCell>
        <mxCell id="aIrRdvwk2NRUeUNDegvj-162" value="Id : serial" style="shape=partialRectangle;html=1;whiteSpace=wrap;connectable=0;fillColor=none;top=0;left=0;bottom=0;right=0;align=left;spacingLeft=6;overflow=hidden;strokeColor=inherit;fontSize=16;" vertex="1" parent="aIrRdvwk2NRUeUNDegvj-160">
          <mxGeometry x="40" width="140" height="30" as="geometry">
            <mxRectangle width="140" height="30" as="alternateBounds" />
          </mxGeometry>
        </mxCell>
        <mxCell id="aIrRdvwk2NRUeUNDegvj-163" value="" style="shape=tableRow;horizontal=0;startSize=0;swimlaneHead=0;swimlaneBody=0;top=0;left=0;bottom=0;right=0;collapsible=0;dropTarget=0;fillColor=none;points=[[0,0.5],[1,0.5]];portConstraint=eastwest;strokeColor=inherit;fontSize=16;" vertex="1" parent="aIrRdvwk2NRUeUNDegvj-159">
          <mxGeometry y="60" width="180" height="30" as="geometry" />
        </mxCell>
        <mxCell id="aIrRdvwk2NRUeUNDegvj-164" value="" style="shape=partialRectangle;html=1;whiteSpace=wrap;connectable=0;fillColor=none;top=0;left=0;bottom=0;right=0;overflow=hidden;strokeColor=inherit;fontSize=16;" vertex="1" parent="aIrRdvwk2NRUeUNDegvj-163">
          <mxGeometry width="40" height="30" as="geometry">
            <mxRectangle width="40" height="30" as="alternateBounds" />
          </mxGeometry>
        </mxCell>
        <mxCell id="aIrRdvwk2NRUeUNDegvj-165" value="Discount:int" style="shape=partialRectangle;html=1;whiteSpace=wrap;connectable=0;fillColor=none;top=0;left=0;bottom=0;right=0;align=left;spacingLeft=6;overflow=hidden;strokeColor=inherit;fontSize=16;" vertex="1" parent="aIrRdvwk2NRUeUNDegvj-163">
          <mxGeometry x="40" width="140" height="30" as="geometry">
            <mxRectangle width="140" height="30" as="alternateBounds" />
          </mxGeometry>
        </mxCell>
        <mxCell id="aIrRdvwk2NRUeUNDegvj-166" value="User" style="shape=table;startSize=30;container=1;collapsible=0;childLayout=tableLayout;fixedRows=1;rowLines=0;fontStyle=0;strokeColor=default;fontSize=16;" vertex="1" parent="1">
          <mxGeometry x="570" y="1820" width="220" height="210" as="geometry" />
        </mxCell>
        <mxCell id="aIrRdvwk2NRUeUNDegvj-167" value="" style="shape=tableRow;horizontal=0;startSize=0;swimlaneHead=0;swimlaneBody=0;top=0;left=0;bottom=1;right=0;collapsible=0;dropTarget=0;fillColor=none;points=[[0,0.5],[1,0.5]];portConstraint=eastwest;strokeColor=inherit;fontSize=16;" vertex="1" parent="aIrRdvwk2NRUeUNDegvj-166">
          <mxGeometry y="30" width="220" height="30" as="geometry" />
        </mxCell>
        <mxCell id="aIrRdvwk2NRUeUNDegvj-168" value="PK" style="shape=partialRectangle;html=1;whiteSpace=wrap;connectable=0;fillColor=none;top=0;left=0;bottom=0;right=0;overflow=hidden;pointerEvents=1;strokeColor=inherit;fontSize=16;" vertex="1" parent="aIrRdvwk2NRUeUNDegvj-167">
          <mxGeometry width="49" height="30" as="geometry">
            <mxRectangle width="49" height="30" as="alternateBounds" />
          </mxGeometry>
        </mxCell>
        <mxCell id="aIrRdvwk2NRUeUNDegvj-169" value="Id : serial" style="shape=partialRectangle;html=1;whiteSpace=wrap;connectable=0;fillColor=none;top=0;left=0;bottom=0;right=0;align=left;spacingLeft=6;overflow=hidden;strokeColor=inherit;fontSize=16;" vertex="1" parent="aIrRdvwk2NRUeUNDegvj-167">
          <mxGeometry x="49" width="171" height="30" as="geometry">
            <mxRectangle width="171" height="30" as="alternateBounds" />
          </mxGeometry>
        </mxCell>
        <mxCell id="aIrRdvwk2NRUeUNDegvj-170" value="" style="shape=tableRow;horizontal=0;startSize=0;swimlaneHead=0;swimlaneBody=0;top=0;left=0;bottom=0;right=0;collapsible=0;dropTarget=0;fillColor=none;points=[[0,0.5],[1,0.5]];portConstraint=eastwest;strokeColor=inherit;fontSize=16;" vertex="1" parent="aIrRdvwk2NRUeUNDegvj-166">
          <mxGeometry y="60" width="220" height="30" as="geometry" />
        </mxCell>
        <mxCell id="aIrRdvwk2NRUeUNDegvj-171" value="U1" style="shape=partialRectangle;html=1;whiteSpace=wrap;connectable=0;fillColor=none;top=0;left=0;bottom=0;right=0;overflow=hidden;strokeColor=inherit;fontSize=16;" vertex="1" parent="aIrRdvwk2NRUeUNDegvj-170">
          <mxGeometry width="49" height="30" as="geometry">
            <mxRectangle width="49" height="30" as="alternateBounds" />
          </mxGeometry>
        </mxCell>
        <mxCell id="aIrRdvwk2NRUeUNDegvj-172" value="Login:&amp;nbsp;varchar(64)" style="shape=partialRectangle;html=1;whiteSpace=wrap;connectable=0;fillColor=none;top=0;left=0;bottom=0;right=0;align=left;spacingLeft=6;overflow=hidden;strokeColor=inherit;fontSize=16;" vertex="1" parent="aIrRdvwk2NRUeUNDegvj-170">
          <mxGeometry x="49" width="171" height="30" as="geometry">
            <mxRectangle width="171" height="30" as="alternateBounds" />
          </mxGeometry>
        </mxCell>
        <mxCell id="aIrRdvwk2NRUeUNDegvj-173" value="" style="shape=tableRow;horizontal=0;startSize=0;swimlaneHead=0;swimlaneBody=0;top=0;left=0;bottom=0;right=0;collapsible=0;dropTarget=0;fillColor=none;points=[[0,0.5],[1,0.5]];portConstraint=eastwest;strokeColor=inherit;fontSize=16;" vertex="1" parent="aIrRdvwk2NRUeUNDegvj-166">
          <mxGeometry y="90" width="220" height="30" as="geometry" />
        </mxCell>
        <mxCell id="aIrRdvwk2NRUeUNDegvj-174" value="" style="shape=partialRectangle;html=1;whiteSpace=wrap;connectable=0;fillColor=none;top=0;left=0;bottom=0;right=0;overflow=hidden;strokeColor=inherit;fontSize=16;" vertex="1" parent="aIrRdvwk2NRUeUNDegvj-173">
          <mxGeometry width="49" height="30" as="geometry">
            <mxRectangle width="49" height="30" as="alternateBounds" />
          </mxGeometry>
        </mxCell>
        <mxCell id="aIrRdvwk2NRUeUNDegvj-175" value="Password:&amp;nbsp;varchar(64)" style="shape=partialRectangle;html=1;whiteSpace=wrap;connectable=0;fillColor=none;top=0;left=0;bottom=0;right=0;align=left;spacingLeft=6;overflow=hidden;strokeColor=inherit;fontSize=16;" vertex="1" parent="aIrRdvwk2NRUeUNDegvj-173">
          <mxGeometry x="49" width="171" height="30" as="geometry">
            <mxRectangle width="171" height="30" as="alternateBounds" />
          </mxGeometry>
        </mxCell>
        <mxCell id="aIrRdvwk2NRUeUNDegvj-176" value="" style="shape=tableRow;horizontal=0;startSize=0;swimlaneHead=0;swimlaneBody=0;top=0;left=0;bottom=0;right=0;collapsible=0;dropTarget=0;fillColor=none;points=[[0,0.5],[1,0.5]];portConstraint=eastwest;strokeColor=inherit;fontSize=16;" vertex="1" parent="aIrRdvwk2NRUeUNDegvj-166">
          <mxGeometry y="120" width="220" height="30" as="geometry" />
        </mxCell>
        <mxCell id="aIrRdvwk2NRUeUNDegvj-177" value="" style="shape=partialRectangle;html=1;whiteSpace=wrap;connectable=0;fillColor=none;top=0;left=0;bottom=0;right=0;overflow=hidden;strokeColor=inherit;fontSize=16;" vertex="1" parent="aIrRdvwk2NRUeUNDegvj-176">
          <mxGeometry width="49" height="30" as="geometry">
            <mxRectangle width="49" height="30" as="alternateBounds" />
          </mxGeometry>
        </mxCell>
        <mxCell id="aIrRdvwk2NRUeUNDegvj-178" value="Name:&amp;nbsp;varchar(64)" style="shape=partialRectangle;html=1;whiteSpace=wrap;connectable=0;fillColor=none;top=0;left=0;bottom=0;right=0;align=left;spacingLeft=6;overflow=hidden;strokeColor=inherit;fontSize=16;" vertex="1" parent="aIrRdvwk2NRUeUNDegvj-176">
          <mxGeometry x="49" width="171" height="30" as="geometry">
            <mxRectangle width="171" height="30" as="alternateBounds" />
          </mxGeometry>
        </mxCell>
        <mxCell id="aIrRdvwk2NRUeUNDegvj-179" value="" style="shape=tableRow;horizontal=0;startSize=0;swimlaneHead=0;swimlaneBody=0;top=0;left=0;bottom=0;right=0;collapsible=0;dropTarget=0;fillColor=none;points=[[0,0.5],[1,0.5]];portConstraint=eastwest;strokeColor=inherit;fontSize=16;" vertex="1" parent="aIrRdvwk2NRUeUNDegvj-166">
          <mxGeometry y="150" width="220" height="30" as="geometry" />
        </mxCell>
        <mxCell id="aIrRdvwk2NRUeUNDegvj-180" value="FK1" style="shape=partialRectangle;html=1;whiteSpace=wrap;connectable=0;fillColor=none;top=0;left=0;bottom=0;right=0;overflow=hidden;strokeColor=inherit;fontSize=16;" vertex="1" parent="aIrRdvwk2NRUeUNDegvj-179">
          <mxGeometry width="49" height="30" as="geometry">
            <mxRectangle width="49" height="30" as="alternateBounds" />
          </mxGeometry>
        </mxCell>
        <mxCell id="aIrRdvwk2NRUeUNDegvj-181" value="RoleId:int" style="shape=partialRectangle;html=1;whiteSpace=wrap;connectable=0;fillColor=none;top=0;left=0;bottom=0;right=0;align=left;spacingLeft=6;overflow=hidden;strokeColor=inherit;fontSize=16;" vertex="1" parent="aIrRdvwk2NRUeUNDegvj-179">
          <mxGeometry x="49" width="171" height="30" as="geometry">
            <mxRectangle width="171" height="30" as="alternateBounds" />
          </mxGeometry>
        </mxCell>
        <mxCell id="aIrRdvwk2NRUeUNDegvj-182" value="" style="shape=tableRow;horizontal=0;startSize=0;swimlaneHead=0;swimlaneBody=0;top=0;left=0;bottom=0;right=0;collapsible=0;dropTarget=0;fillColor=none;points=[[0,0.5],[1,0.5]];portConstraint=eastwest;strokeColor=inherit;fontSize=16;" vertex="1" parent="aIrRdvwk2NRUeUNDegvj-166">
          <mxGeometry y="180" width="220" height="30" as="geometry" />
        </mxCell>
        <mxCell id="aIrRdvwk2NRUeUNDegvj-183" value="FK2" style="shape=partialRectangle;html=1;whiteSpace=wrap;connectable=0;fillColor=none;top=0;left=0;bottom=0;right=0;overflow=hidden;strokeColor=inherit;fontSize=16;" vertex="1" parent="aIrRdvwk2NRUeUNDegvj-182">
          <mxGeometry width="49" height="30" as="geometry">
            <mxRectangle width="49" height="30" as="alternateBounds" />
          </mxGeometry>
        </mxCell>
        <mxCell id="aIrRdvwk2NRUeUNDegvj-184" value="CouponId:int" style="shape=partialRectangle;html=1;whiteSpace=wrap;connectable=0;fillColor=none;top=0;left=0;bottom=0;right=0;align=left;spacingLeft=6;overflow=hidden;strokeColor=inherit;fontSize=16;" vertex="1" parent="aIrRdvwk2NRUeUNDegvj-182">
          <mxGeometry x="49" width="171" height="30" as="geometry">
            <mxRectangle width="171" height="30" as="alternateBounds" />
          </mxGeometry>
        </mxCell>
        <mxCell id="aIrRdvwk2NRUeUNDegvj-185" value="OrderBook" style="shape=table;startSize=30;container=1;collapsible=0;childLayout=tableLayout;fixedRows=1;rowLines=0;fontStyle=0;strokeColor=default;fontSize=16;" vertex="1" parent="1">
          <mxGeometry x="380" y="2190" width="130" height="140" as="geometry" />
        </mxCell>
        <mxCell id="aIrRdvwk2NRUeUNDegvj-186" value="" style="shape=tableRow;horizontal=0;startSize=0;swimlaneHead=0;swimlaneBody=0;top=0;left=0;bottom=1;right=0;collapsible=0;dropTarget=0;fillColor=none;points=[[0,0.5],[1,0.5]];portConstraint=eastwest;strokeColor=inherit;fontSize=16;" vertex="1" parent="aIrRdvwk2NRUeUNDegvj-185">
          <mxGeometry y="30" width="130" height="30" as="geometry" />
        </mxCell>
        <mxCell id="aIrRdvwk2NRUeUNDegvj-187" value="PK" style="shape=partialRectangle;html=1;whiteSpace=wrap;connectable=0;fillColor=none;top=0;left=0;bottom=0;right=0;overflow=hidden;pointerEvents=1;strokeColor=inherit;fontSize=16;" vertex="1" parent="aIrRdvwk2NRUeUNDegvj-186">
          <mxGeometry width="29" height="30" as="geometry">
            <mxRectangle width="29" height="30" as="alternateBounds" />
          </mxGeometry>
        </mxCell>
        <mxCell id="aIrRdvwk2NRUeUNDegvj-188" value="Id : serial" style="shape=partialRectangle;html=1;whiteSpace=wrap;connectable=0;fillColor=none;top=0;left=0;bottom=0;right=0;align=left;spacingLeft=6;overflow=hidden;strokeColor=inherit;fontSize=16;" vertex="1" parent="aIrRdvwk2NRUeUNDegvj-186">
          <mxGeometry x="29" width="101" height="30" as="geometry">
            <mxRectangle width="101" height="30" as="alternateBounds" />
          </mxGeometry>
        </mxCell>
        <mxCell id="aIrRdvwk2NRUeUNDegvj-189" value="" style="shape=tableRow;horizontal=0;startSize=0;swimlaneHead=0;swimlaneBody=0;top=0;left=0;bottom=0;right=0;collapsible=0;dropTarget=0;fillColor=none;points=[[0,0.5],[1,0.5]];portConstraint=eastwest;strokeColor=inherit;fontSize=16;" vertex="1" parent="aIrRdvwk2NRUeUNDegvj-185">
          <mxGeometry y="60" width="130" height="30" as="geometry" />
        </mxCell>
        <mxCell id="aIrRdvwk2NRUeUNDegvj-190" value="FK1" style="shape=partialRectangle;html=1;whiteSpace=wrap;connectable=0;fillColor=none;top=0;left=0;bottom=0;right=0;overflow=hidden;strokeColor=inherit;fontSize=16;" vertex="1" parent="aIrRdvwk2NRUeUNDegvj-189">
          <mxGeometry width="29" height="30" as="geometry">
            <mxRectangle width="29" height="30" as="alternateBounds" />
          </mxGeometry>
        </mxCell>
        <mxCell id="aIrRdvwk2NRUeUNDegvj-191" value="OrderId:int" style="shape=partialRectangle;html=1;whiteSpace=wrap;connectable=0;fillColor=none;top=0;left=0;bottom=0;right=0;align=left;spacingLeft=6;overflow=hidden;strokeColor=inherit;fontSize=16;" vertex="1" parent="aIrRdvwk2NRUeUNDegvj-189">
          <mxGeometry x="29" width="101" height="30" as="geometry">
            <mxRectangle width="101" height="30" as="alternateBounds" />
          </mxGeometry>
        </mxCell>
        <mxCell id="aIrRdvwk2NRUeUNDegvj-192" value="" style="shape=tableRow;horizontal=0;startSize=0;swimlaneHead=0;swimlaneBody=0;top=0;left=0;bottom=0;right=0;collapsible=0;dropTarget=0;fillColor=none;points=[[0,0.5],[1,0.5]];portConstraint=eastwest;strokeColor=inherit;fontSize=16;" vertex="1" parent="aIrRdvwk2NRUeUNDegvj-185">
          <mxGeometry y="90" width="130" height="30" as="geometry" />
        </mxCell>
        <mxCell id="aIrRdvwk2NRUeUNDegvj-193" value="FK2" style="shape=partialRectangle;html=1;whiteSpace=wrap;connectable=0;fillColor=none;top=0;left=0;bottom=0;right=0;overflow=hidden;strokeColor=inherit;fontSize=16;" vertex="1" parent="aIrRdvwk2NRUeUNDegvj-192">
          <mxGeometry width="29" height="30" as="geometry">
            <mxRectangle width="29" height="30" as="alternateBounds" />
          </mxGeometry>
        </mxCell>
        <mxCell id="aIrRdvwk2NRUeUNDegvj-194" value="BookId:int" style="shape=partialRectangle;html=1;whiteSpace=wrap;connectable=0;fillColor=none;top=0;left=0;bottom=0;right=0;align=left;spacingLeft=6;overflow=hidden;strokeColor=inherit;fontSize=16;" vertex="1" parent="aIrRdvwk2NRUeUNDegvj-192">
          <mxGeometry x="29" width="101" height="30" as="geometry">
            <mxRectangle width="101" height="30" as="alternateBounds" />
          </mxGeometry>
        </mxCell>
        <mxCell id="aIrRdvwk2NRUeUNDegvj-195" value="" style="shape=tableRow;horizontal=0;startSize=0;swimlaneHead=0;swimlaneBody=0;top=0;left=0;bottom=0;right=0;collapsible=0;dropTarget=0;fillColor=none;points=[[0,0.5],[1,0.5]];portConstraint=eastwest;strokeColor=inherit;fontSize=16;" vertex="1" parent="aIrRdvwk2NRUeUNDegvj-185">
          <mxGeometry y="120" width="130" height="20" as="geometry" />
        </mxCell>
        <mxCell id="aIrRdvwk2NRUeUNDegvj-196" value="" style="shape=partialRectangle;html=1;whiteSpace=wrap;connectable=0;fillColor=none;top=0;left=0;bottom=0;right=0;overflow=hidden;strokeColor=inherit;fontSize=16;" vertex="1" parent="aIrRdvwk2NRUeUNDegvj-195">
          <mxGeometry width="29" height="20" as="geometry">
            <mxRectangle width="29" height="20" as="alternateBounds" />
          </mxGeometry>
        </mxCell>
        <mxCell id="aIrRdvwk2NRUeUNDegvj-197" value="Count:int" style="shape=partialRectangle;html=1;whiteSpace=wrap;connectable=0;fillColor=none;top=0;left=0;bottom=0;right=0;align=left;spacingLeft=6;overflow=hidden;strokeColor=inherit;fontSize=16;" vertex="1" parent="aIrRdvwk2NRUeUNDegvj-195">
          <mxGeometry x="29" width="101" height="20" as="geometry">
            <mxRectangle width="101" height="20" as="alternateBounds" />
          </mxGeometry>
        </mxCell>
        <mxCell id="aIrRdvwk2NRUeUNDegvj-198" value="" style="fontSize=12;html=1;endArrow=ERoneToMany;startArrow=ERmandOne;rounded=0;entryX=0.388;entryY=-0.001;entryDx=0;entryDy=0;entryPerimeter=0;" edge="1" parent="1" target="aIrRdvwk2NRUeUNDegvj-185">
          <mxGeometry width="100" height="100" relative="1" as="geometry">
            <mxPoint x="430" y="2051" as="sourcePoint" />
            <mxPoint x="510" y="2070" as="targetPoint" />
          </mxGeometry>
        </mxCell>
        <mxCell id="aIrRdvwk2NRUeUNDegvj-199" value="" style="fontSize=12;html=1;endArrow=ERzeroToMany;startArrow=ERmandOne;rounded=0;edgeStyle=elbowEdgeStyle;entryX=0;entryY=0.25;entryDx=0;entryDy=0;" edge="1" parent="1" target="aIrRdvwk2NRUeUNDegvj-39">
          <mxGeometry width="100" height="100" relative="1" as="geometry">
            <mxPoint x="450" y="2330" as="sourcePoint" />
            <mxPoint x="818" y="2398" as="targetPoint" />
            <Array as="points">
              <mxPoint x="450" y="2380" />
            </Array>
          </mxGeometry>
        </mxCell>
      </root>
    </mxGraphModel>
  </diagram>
</mxfile>
